<svg id="realvilla" xmlns="http://www.w3.org/2000/svg" width="111.81" height="34" viewBox="0 0 111.81 34">
  <defs>
    <style>
      .cls-1 {
        fill: #fff;
        fill-rule: evenodd;
      }
    </style>
  </defs>
  <path class="cls-1" d="M1084.68,506.8l-5.28,8.176V497.992h5.28V506.8Z" transform="translate(-1075 -497.047)"/>
  <path class="cls-1" d="M1102.64,505.607h6.53l-4.55-7.455-6.49-.1Z" transform="translate(-1075 -497.047)"/>
  <path class="cls-1" d="M1081.59,521.822L1075,521.8l14.6-23.746,6.6,0Zm13.17-9.141h-6.72l9.12-14.628h6.73Z" transform="translate(-1075 -497.047)"/>
  <path id="Realvilla-2" data-name="Realvilla" class="cls-1" d="M1100.85,529.9h3.07v-5.6h3.76a1.794,1.794,0,0,1,1.26.468,3.018,3.018,0,0,1,.8,1.428l1.18,3.7h3.18l-1.24-3.972a8.864,8.864,0,0,0-.72-1.673,3.558,3.558,0,0,0-1.08-1.071v-0.045a4.024,4.024,0,0,0,1.9-1.305,3.216,3.216,0,0,0,.66-2.019v-1.562a3.674,3.674,0,0,0-1.24-2.878,4.735,4.735,0,0,0-3.26-1.093h-8.27V529.9Zm3.07-8.255v-4.686h5.16a1.484,1.484,0,0,1,1.07.391,1.409,1.409,0,0,1,.4,1.037v1.45a1.7,1.7,0,0,1-.54,1.306,2.044,2.044,0,0,1-1.47.5h-4.62Zm15.68,8.433h1.69a6.2,6.2,0,0,0,2.48-.468,3.842,3.842,0,0,0,1.68-1.339,3.414,3.414,0,0,0,.6-1.986h-2.98a1.066,1.066,0,0,1-.48.9,2.1,2.1,0,0,1-1.26.346h-1.73a1.771,1.771,0,0,1-1.27-.446,1.568,1.568,0,0,1-.47-1.183v-0.535h8.23v-2.365a4.186,4.186,0,0,0-1.29-3.213,4.81,4.81,0,0,0-3.42-1.205h-1.78a5.336,5.336,0,0,0-2.48.558,4.1,4.1,0,0,0-1.68,1.562,4.435,4.435,0,0,0-.6,2.32v2.878a3.914,3.914,0,0,0,2.28,3.648,5.628,5.628,0,0,0,2.48.524h0Zm-1.78-6.894V523.12a2.132,2.132,0,0,1,.49-1.472,1.643,1.643,0,0,1,1.29-.558h1.8a1.593,1.593,0,0,1,1.25.524,2.024,2.024,0,0,1,.46,1.395v0.178h-5.29Zm13.28,6.894h1.38a3.259,3.259,0,0,0,1.53-.413,4.07,4.07,0,0,0,1.32-1.1V529.9h2.8v-7.519a3.46,3.46,0,0,0-1.2-2.755,4.671,4.671,0,0,0-3.16-1.038h-1.91a4.725,4.725,0,0,0-3.13.993,3.256,3.256,0,0,0-1.19,2.621h2.94a0.93,0.93,0,0,1,.37-0.78,1.631,1.631,0,0,1,1.01-.29h1.91a1.371,1.371,0,0,1,.97.345,1.2,1.2,0,0,1,.36.9v1.16a5.8,5.8,0,0,0-1.22-.424,5.463,5.463,0,0,0-1.25-.156h-1.35a4.679,4.679,0,0,0-2.94.859,2.725,2.725,0,0,0-1.11,2.265v0.825a2.8,2.8,0,0,0,1.07,2.3,4.281,4.281,0,0,0,2.8.87h0Zm0.4-2.32a1.621,1.621,0,0,1-.97-0.268,0.825,0.825,0,0,1-.36-0.692v-0.58a0.874,0.874,0,0,1,.33-0.714,1.341,1.341,0,0,1,.87-0.267h1.4a5.579,5.579,0,0,1,1.34.156,2.616,2.616,0,0,1,.99.424V526.2a2.391,2.391,0,0,1-.93,1.138,2.613,2.613,0,0,1-1.47.424h-1.2Zm12.35,2.142h1.42v-2.588h-1.2a1.054,1.054,0,0,1-.78-0.246,1.083,1.083,0,0,1-.24-0.781v-12h-3.03v12.182a3.36,3.36,0,0,0,.92,2.6,4.26,4.26,0,0,0,2.91.837h0Zm6.51,0h1.56l4.47-11.133h-3.18l-2.65,7.652h-0.04l-2.63-7.652h-3.18l3.83,9.682a2.8,2.8,0,0,0,.74,1.105,1.679,1.679,0,0,0,1.08.346h0Zm8.63-12.182a1.9,1.9,0,0,0,1.39-.5,1.928,1.928,0,0,0,0-2.655,1.9,1.9,0,0,0-1.39-.5,1.937,1.937,0,0,0-1.39.5,1.954,1.954,0,0,0,0,2.655,1.937,1.937,0,0,0,1.39.5h0Zm-1.51,12.182h3.03V518.77h-3.03V529.9Zm9.28,0h1.42v-2.588h-1.2a1.054,1.054,0,0,1-.78-0.246,1.083,1.083,0,0,1-.24-0.781v-12h-3.03v12.182a3.36,3.36,0,0,0,.92,2.6,4.26,4.26,0,0,0,2.91.837h0Zm5.89,0h1.43v-2.588h-1.2a1.054,1.054,0,0,1-.78-0.246,1.042,1.042,0,0,1-.25-0.781v-12h-3.02v12.182a3.324,3.324,0,0,0,.92,2.6,4.214,4.214,0,0,0,2.9.837h0Zm5.72,0.178h1.38a3.259,3.259,0,0,0,1.53-.413,4.07,4.07,0,0,0,1.32-1.1V529.9h2.8v-7.519a3.46,3.46,0,0,0-1.2-2.755,4.671,4.671,0,0,0-3.16-1.038h-1.91a4.725,4.725,0,0,0-3.13.993,3.256,3.256,0,0,0-1.19,2.621h2.94a0.93,0.93,0,0,1,.37-0.78,1.631,1.631,0,0,1,1.01-.29h1.91a1.371,1.371,0,0,1,.97.345,1.2,1.2,0,0,1,.36.9v1.16a6,6,0,0,0-1.22-.424,5.463,5.463,0,0,0-1.25-.156h-1.35a4.679,4.679,0,0,0-2.94.859,2.725,2.725,0,0,0-1.11,2.265v0.825a2.8,2.8,0,0,0,1.07,2.3,4.281,4.281,0,0,0,2.8.87h0Zm0.4-2.32a1.621,1.621,0,0,1-.97-0.268,0.825,0.825,0,0,1-.36-0.692v-0.58a0.874,0.874,0,0,1,.33-0.714,1.341,1.341,0,0,1,.87-0.267h1.4a5.579,5.579,0,0,1,1.34.156,2.616,2.616,0,0,1,.99.424V526.2a2.391,2.391,0,0,1-.93,1.138,2.613,2.613,0,0,1-1.47.424h-1.2Z" transform="translate(-1075 -497.047)"/>
  <path id="dream_home" data-name="dream home" class="cls-1" d="M1133.49,508.738h0.7a1.39,1.39,0,0,0,.72-0.228,1.876,1.876,0,0,0,.61-0.6v0.749h0.71v-7.084h-0.73v2.56a1.365,1.365,0,0,0-.51-0.445,1.424,1.424,0,0,0-.66-0.162h-0.75a1.832,1.832,0,0,0-.97.258,1.7,1.7,0,0,0-.65.729,2.336,2.336,0,0,0-.24,1.077v1.215a2.176,2.176,0,0,0,.23,1.012,1.577,1.577,0,0,0,.62.678,1.762,1.762,0,0,0,.92.243h0Zm0.02-.648a0.944,0.944,0,0,1-.76-0.359,1.4,1.4,0,0,1-.3-0.926V505.59a1.586,1.586,0,0,1,.32-1.027,1.021,1.021,0,0,1,.83-0.389h0.71a1.065,1.065,0,0,1,.79.334,1.484,1.484,0,0,1,.4.87v1.275a1.6,1.6,0,0,1-.21.688,1.678,1.678,0,0,1-.5.541,1.08,1.08,0,0,1-.62.208h-0.66Zm4.15,0.567h0.73v-2.915a1.479,1.479,0,0,1,.4-1.088,1.374,1.374,0,0,1,1.04-.41h0.44v-0.657h-0.44a1.734,1.734,0,0,0-.85.222,1.442,1.442,0,0,0-.61.577v-0.779h-0.71v5.05Zm5,0.081h0.76a1.912,1.912,0,0,0,1.34-.461,1.578,1.578,0,0,0,.5-1.209h-0.7a0.949,0.949,0,0,1-.32.744,1.189,1.189,0,0,1-.82.278h-0.76a1.125,1.125,0,0,1-.84-0.329,1.181,1.181,0,0,1-.31-0.855V506.3h3.77v-0.891a1.889,1.889,0,0,0-.49-1.366,1.729,1.729,0,0,0-1.3-.516h-0.83a1.831,1.831,0,0,0-1.37.531,1.94,1.94,0,0,0-.51,1.4v1.447a1.782,1.782,0,0,0,.51,1.331,1.891,1.891,0,0,0,1.37.5h0Zm-1.15-3.067v-0.212a1.345,1.345,0,0,1,.31-0.931,1.083,1.083,0,0,1,.84-0.354h0.83a0.958,0.958,0,0,1,.77.339,1.3,1.3,0,0,1,.3.9v0.263h-3.05Zm6.4,3.067h0.6a1.623,1.623,0,0,0,.79-0.213,1.763,1.763,0,0,0,.61-0.577v0.709h0.68v-3.532a1.52,1.52,0,0,0-.46-1.159,1.66,1.66,0,0,0-1.2-.44h-0.81a1.856,1.856,0,0,0-1.22.379,1.23,1.23,0,0,0-.47,1h0.73a0.655,0.655,0,0,1,.26-0.536,1.129,1.129,0,0,1,.7-0.2h0.81a0.906,0.906,0,0,1,.69.268,0.935,0.935,0,0,1,.27.693v0.84a2.065,2.065,0,0,0-.61-0.273,2.476,2.476,0,0,0-.69-0.1h-0.64a1.786,1.786,0,0,0-1.2.385,1.255,1.255,0,0,0-.46,1.022v0.324a1.311,1.311,0,0,0,.44,1.032,1.732,1.732,0,0,0,1.18.385h0Zm0-.638a0.954,0.954,0,0,1-.65-0.212,0.721,0.721,0,0,1-.24-0.567V507a0.668,0.668,0,0,1,.26-0.557,1.009,1.009,0,0,1,.67-0.212h0.64a2.424,2.424,0,0,1,.74.116,1.573,1.573,0,0,1,.56.309v0.374a1.457,1.457,0,0,1-.51.78,1.339,1.339,0,0,1-.85.293h-0.62Zm9.58-4.574h-0.62a1.292,1.292,0,0,0-.7.2,1.7,1.7,0,0,0-.56.608,1.225,1.225,0,0,0-1.2-.81h-0.6a1.072,1.072,0,0,0-.63.213,1.718,1.718,0,0,0-.51.6v-0.729h-0.7v5.05h0.72v-3.168a1.845,1.845,0,0,1,.4-0.951,0.933,0.933,0,0,1,.72-0.364h0.58a0.6,0.6,0,0,1,.51.268,1.322,1.322,0,0,1,.19.744v3.471h0.72V505.3a1.516,1.516,0,0,1,.37-0.83,0.926,0.926,0,0,1,.71-0.293h0.58a0.637,0.637,0,0,1,.53.253,1.059,1.059,0,0,1,.21.7v3.532h0.72v-3.512a1.706,1.706,0,0,0-.39-1.189,1.346,1.346,0,0,0-1.05-.43h0Zm5.34,5.131h0.73v-3.168a1.614,1.614,0,0,1,.49-0.946,1.215,1.215,0,0,1,.86-0.369h0.67a0.738,0.738,0,0,1,.61.293,1.157,1.157,0,0,1,.23.759v3.431h0.73v-3.411a1.769,1.769,0,0,0-.43-1.244,1.43,1.43,0,0,0-1.12-.476h-0.71a1.445,1.445,0,0,0-.74.213,1.727,1.727,0,0,0-.59.566v-2.732h-0.73v7.084Zm7.37,0.081h0.83a1.815,1.815,0,0,0,1.92-1.913v-1.386a1.915,1.915,0,0,0-.52-1.387,1.867,1.867,0,0,0-1.38-.526h-0.83a1.8,1.8,0,0,0-1.9,1.913v1.386a1.872,1.872,0,0,0,.52,1.386,1.8,1.8,0,0,0,1.36.527h0Zm0-.648a1.085,1.085,0,0,1-.84-0.344,1.307,1.307,0,0,1-.31-0.921v-1.386a1.318,1.318,0,0,1,.32-0.916,1.111,1.111,0,0,1,.85-0.349h0.83a1.111,1.111,0,0,1,.85.349,1.318,1.318,0,0,1,.32.916v1.386a1.318,1.318,0,0,1-.32.916,1.141,1.141,0,0,1-.87.349h-0.83Zm9.5-4.564h-0.62a1.292,1.292,0,0,0-.7.2,1.7,1.7,0,0,0-.56.608,1.225,1.225,0,0,0-1.2-.81h-0.59a1.078,1.078,0,0,0-.64.213,1.718,1.718,0,0,0-.51.6v-0.729h-0.7v5.05h0.72v-3.168a1.845,1.845,0,0,1,.4-0.951,0.937,0.937,0,0,1,.73-0.364h0.57a0.578,0.578,0,0,1,.51.268,1.322,1.322,0,0,1,.19.744v3.471h0.72V505.3a1.516,1.516,0,0,1,.37-0.83,0.941,0.941,0,0,1,.71-0.293h0.58a0.669,0.669,0,0,1,.54.253,1.116,1.116,0,0,1,.2.7v3.532h0.72v-3.512a1.751,1.751,0,0,0-.38-1.189,1.368,1.368,0,0,0-1.06-.43h0Zm4.49,5.212h0.77a1.886,1.886,0,0,0,1.33-.461,1.551,1.551,0,0,0,.51-1.209h-0.71a0.941,0.941,0,0,1-.31.744,1.189,1.189,0,0,1-.82.278h-0.77a1.1,1.1,0,0,1-.83-0.329,1.187,1.187,0,0,1-.32-0.855V506.3h3.78v-0.891a1.9,1.9,0,0,0-.5-1.366,1.714,1.714,0,0,0-1.3-.516h-0.83a1.808,1.808,0,0,0-1.36.531,1.94,1.94,0,0,0-.51,1.4v1.447a1.782,1.782,0,0,0,.51,1.331,1.867,1.867,0,0,0,1.36.5h0Zm-1.15-3.067v-0.212a1.35,1.35,0,0,1,.32-0.931,1.062,1.062,0,0,1,.83-0.354h0.83a0.993,0.993,0,0,1,.78.339,1.346,1.346,0,0,1,.29.9v0.263h-3.05Z" transform="translate(-1075 -497.047)"/>
</svg>
