<svg id="simpleaf" xmlns="http://www.w3.org/2000/svg" width="80" height="34" viewBox="0 0 80 34">
  <defs>
    <style>
      .cls-1 {
        fill: #fff;
        fill-rule: evenodd;
      }
    </style>
  </defs>
  <path class="cls-1" d="M1297.12,427.186a0.435,0.435,0,0,0-.3-0.557,0.465,0.465,0,0,0-.58.282l-1.58,4.59-1.77.683a5.1,5.1,0,0,1,.26-4.1c1.58-2.912,5.44-3.333,8.41-3.173a25.393,25.393,0,0,1,4.95.921,0.476,0.476,0,0,0,.58-0.3,0.447,0.447,0,0,0-.32-0.547,26.457,26.457,0,0,0-5.16-.955c-4.64-.25-7.86,1.012-9.29,3.65a6.063,6.063,0,0,0-.16,5.206s0.01,0,.01,0a0.532,0.532,0,0,0,.65.273l2.39-.919a0.454,0.454,0,0,0,.26-0.272Zm5.36,5.212-3.75-1.981,1.3-3.962a0.436,0.436,0,0,0-.3-0.553,0.47,0.47,0,0,0-.58.288c-0.02.061-1.41,4.275-1.43,4.337a0.436,0.436,0,0,0,.23.487l4.08,2.156a0.471,0.471,0,0,0,.63-0.172A0.421,0.421,0,0,0,1302.48,432.4Zm0.25-5.992a0.442,0.442,0,0,0-.29-0.561,0.471,0.471,0,0,0-.59.274l-0.48,1.321a0.442,0.442,0,0,0,.29.561,0.47,0.47,0,0,0,.59-0.274Zm-6.35,6.235a0.427,0.427,0,0,0,.18.6l3.01,1.571a0.465,0.465,0,0,0,.62-0.175,0.42,0.42,0,0,0-.18-0.6l-3-1.571A0.474,0.474,0,0,0,1296.38,432.641Zm9.09,0.446a34.8,34.8,0,0,0,4.39-6.595,0.452,0.452,0,0,0-.62-0.6c-0.07.015,0.41-.165-8.15,3.131a0.457,0.457,0,0,0-.04.826l3.04,1.651a0.484,0.484,0,0,0,.64-0.165,0.432,0.432,0,0,0-.18-0.6l-2.25-1.223,6.15-2.371a28.327,28.327,0,0,1-3.66,5.352c-2.02,2.079-5.1,4.339-8.37,3.292a4.842,4.842,0,0,1-2.55-1.707,0.482,0.482,0,0,0-.65-0.1,0.425,0.425,0,0,0-.1.616,5.735,5.735,0,0,0,3.01,2.026C1299.08,437.566,1302.31,436.345,1305.47,433.087Z" transform="translate(-1236 -422)"/>
  <path class="cls-1" d="M1242.7,442.174a1.19,1.19,0,0,0-.51-1,2.2,2.2,0,0,0-1.34-.378,2.425,2.425,0,0,0-1.27.283,0.888,0.888,0,0,0-.45.791,0.743,0.743,0,0,0,.52.618,9.085,9.085,0,0,0,1.8.547,9.377,9.377,0,0,1,3.44,1.284,2.637,2.637,0,0,1,.87,2.19,3.088,3.088,0,0,1-1.27,2.563,5.3,5.3,0,0,1-3.32.97,6.367,6.367,0,0,1-3.77-.955,3.442,3.442,0,0,1-1.4-2.787h2.84a1.423,1.423,0,0,0,.65,1.169,2.925,2.925,0,0,0,1.68.423,2.493,2.493,0,0,0,1.31-.293,0.927,0.927,0,0,0,.47-0.822,0.735,0.735,0,0,0-.46-0.627,6.8,6.8,0,0,0-1.6-.507,10.479,10.479,0,0,1-3.6-1.3,2.457,2.457,0,0,1-.9-2.1,3.244,3.244,0,0,1,1.17-2.6,4.622,4.622,0,0,1,3.09-.99,5.79,5.79,0,0,1,3.49.97,3.031,3.031,0,0,1,1.32,2.563h-2.76Zm5.17-7.156h2.84v2.647h-2.84v-2.647Zm0.03,3.911h2.79v10.829h-2.79V438.929Zm5.41,0h2.66v1.742a3.212,3.212,0,0,1,3.15-2.03,2.972,2.972,0,0,1,2.29.965,2.939,2.939,0,0,1,.56.816l0.34-.567a2.907,2.907,0,0,1,2.52-1.214,3.511,3.511,0,0,1,2.7,1.045,4.036,4.036,0,0,1,.98,2.9v7.176h-2.79V443.4a3.276,3.276,0,0,0-.39-1.8,1.38,1.38,0,0,0-1.22-.583,1.659,1.659,0,0,0-1.34.553,2.4,2.4,0,0,0-.46,1.587v6.6h-2.8V442.93a2.166,2.166,0,0,0-.4-1.443,1.593,1.593,0,0,0-1.26-.468,1.569,1.569,0,0,0-1.29.553,2.456,2.456,0,0,0-.45,1.587v6.6h-2.8V438.929Zm17.69,0h2.66v1.6l0.19-.269a3.46,3.46,0,0,1,2.98-1.622,3.929,3.929,0,0,1,3.23,1.522,6.189,6.189,0,0,1,1.22,4.012,6.822,6.822,0,0,1-1.22,4.25,3.849,3.849,0,0,1-3.23,1.612,3.525,3.525,0,0,1-2.97-1.513l-0.06-.079V454H1271V438.929Zm5.03,8.759a2.055,2.055,0,0,0,1.75-.861,3.988,3.988,0,0,0,.63-2.394,4.139,4.139,0,0,0-.63-2.443,2.151,2.151,0,0,0-3.49.025,4.359,4.359,0,0,0-.63,2.518,3.777,3.777,0,0,0,.63,2.319A2.058,2.058,0,0,0,1276.03,447.688Zm7.29-12.561h2.79v14.631h-2.79V435.127Zm9.66,14.91a4.667,4.667,0,0,1-3.73-1.523,6.478,6.478,0,0,1-1.31-4.339,5.822,5.822,0,0,1,1.34-4.066,4.743,4.743,0,0,1,3.7-1.468,4.675,4.675,0,0,1,3.73,1.5,6.244,6.244,0,0,1,1.31,4.265,2.039,2.039,0,0,1-.05.647h-7.21a3.812,3.812,0,0,0,.55,1.921,2.261,2.261,0,0,0,1.95.8,2.033,2.033,0,0,0,1.17-.369,1.422,1.422,0,0,0,.65-0.885h2.85a4.16,4.16,0,0,1-1.67,2.588A5.528,5.528,0,0,1,1292.98,450.037Zm2.13-6.808a2.907,2.907,0,0,0-.51-1.523,1.917,1.917,0,0,0-1.66-.726,1.867,1.867,0,0,0-1.65.846,3.785,3.785,0,0,0-.5,1.4h4.32Zm7.3,6.808a3.261,3.261,0,0,1-2.36-.861,2.99,2.99,0,0,1-.9-2.264,3.393,3.393,0,0,1,.81-2.374,3.807,3.807,0,0,1,2.36-1.12l1.84-.259a3.753,3.753,0,0,0,1.19-.338,0.647,0.647,0,0,0,.32-0.358,0.994,0.994,0,0,0-.37-1.244,2.556,2.556,0,0,0-1.38-.309,1.8,1.8,0,0,0-1.24.4,1.512,1.512,0,0,0-.48,1.125h-2.68a3.656,3.656,0,0,1,1.27-2.847,5.414,5.414,0,0,1,3.45-.945,5.164,5.164,0,0,1,3.13.851,2.749,2.749,0,0,1,1.14,2.327v6.057a3.008,3.008,0,0,0,.12,1.021,0.855,0.855,0,0,0,.46.463v0.4h-3.02v-0.01a7.58,7.58,0,0,1-.24-1.284l-0.01-.019A4.2,4.2,0,0,1,1302.41,450.037Zm3.36-4.28v-1.244a4.419,4.419,0,0,1-1.28.448l-1.03.2a2.085,2.085,0,0,0-1.11.513,1.237,1.237,0,0,0-.38.94,1.423,1.423,0,0,0,.34,1.015,1.213,1.213,0,0,0,.95.369,2.623,2.623,0,0,0,2.14-.966,1.613,1.613,0,0,0,.27-0.557A2.6,2.6,0,0,0,1305.77,445.757Zm8.44-4.827v8.828h-2.8V440.93h-1.55v-2h1.55v-0.9a3.066,3.066,0,0,1,.81-2.33,3.514,3.514,0,0,1,2.47-.766,8.839,8.839,0,0,1,1.32.07v2.279h-0.89a0.9,0.9,0,0,0-.73.229,1.649,1.649,0,0,0-.18.936v0.487h1.8v2h-1.8Z" transform="translate(-1236 -422)"/>
</svg>
