<svg id="butterfly" xmlns="http://www.w3.org/2000/svg" width="110.25" height="33.875" viewBox="0 0 110.25 33.875">
  <defs>
    <style>
      .cls-1 {
        fill: #ffb400;
      }

      .cls-1, .cls-2 {
        fill-rule: evenodd;
      }

      .cls-2 {
        fill: #303030;
      }
    </style>
  </defs>
  <path class="cls-1" d="M1327.73,519.769c0.85-.358,2.31-0.3,5.39,1.737,2.37,1.568,3.04,2.138,2.85,2.475-0.27.465-1.1-.189-3.95-1.962a5.119,5.119,0,0,0-4-.823A0.735,0.735,0,0,1,1327.73,519.769Zm-4.01-2.008c0.01-.112.07-0.254,0.54-0.3a3.093,3.093,0,0,1,2.36,1.03c0.79,0.734.96,1,.89,1.067a2.289,2.289,0,0,1-.85-0.68,2.6,2.6,0,0,0-2.15-.828C1323.89,518.114,1323.7,517.933,1323.72,517.761Zm-0.46,1.521c-0.02-.105-0.01-0.252.39-0.433a2.992,2.992,0,0,1,2.46.243c0.96,0.432,1.19.624,1.15,0.705a2.25,2.25,0,0,1-.98-0.368,2.543,2.543,0,0,0-2.22-.118C1323.53,519.551,1323.3,519.443,1323.26,519.282Zm8.04-2.916a97.368,97.368,0,0,1,.67-16.02c0.5-4.579,5.48-1.436,9.67,3.38,3.37,3.87,1.37,6.319-.58,8.755s-4.13,4.353-3.93,4.827c0.27,0.653,5.46-2.7,7.25-2.41,1.51,0.246,2.78,6.5,1.01,7.943-1.12.915-5.34,0.228-8.31-.713C1334.29,521.249,1331.36,520.549,1331.3,516.366Zm-0.58.663a97.049,97.049,0,0,1-.48-15.51c-2.84-.726-4.78-0.219-4.11,2.455,1.98,7.848,2.24,9.152,3.9,13.428a6.939,6.939,0,0,0,1.66,2.519A5.59,5.59,0,0,1,1330.72,517.029Zm1.34,2.261a0.229,0.229,0,0,1-.04-0.068A0.229,0.229,0,0,0,1332.06,519.29Z" transform="translate(-1236 -498.125)"/>
  <path class="cls-2" d="M1239.19,514.46v3.45a3.808,3.808,0,0,1,1.49-1.337,4.848,4.848,0,0,1,5.67,1.25,7.432,7.432,0,0,1,0,8.711,3.955,3.955,0,0,1-1.9,1.186,8.011,8.011,0,0,1-2.36.366,8.373,8.373,0,0,1-4.17-1.078q-1.92-1.077-1.92-4.139v-9.875h1.59a1.609,1.609,0,0,1,1.13.431A1.367,1.367,0,0,1,1239.19,514.46Zm5.33,7.589a3.718,3.718,0,0,0-.7-2.415,2.3,2.3,0,0,0-1.92-.906,2.451,2.451,0,0,0-2.01.863,3.9,3.9,0,0,0-.7,2.458,4.2,4.2,0,0,0,.65,2.631,2.36,2.36,0,0,0,1.97.905,2.4,2.4,0,0,0,2.01-.905A4.217,4.217,0,0,0,1244.52,522.049Zm15.93-5.649v6.727c0,2.042-.58,3.378-1.73,4.01a7.786,7.786,0,0,1-3.8.949,7.984,7.984,0,0,1-3.67-1.035c-1.11-.632-1.66-1.94-1.66-3.924V516.4h3.27v7.331a1.731,1.731,0,0,0,.66,1.509,2.5,2.5,0,0,0,1.5.474,2.582,2.582,0,0,0,1.52-.474,1.718,1.718,0,0,0,.68-1.509v-5.865a1.408,1.408,0,0,1,.44-1.034,1.587,1.587,0,0,1,1.15-.432h1.64Zm7.31,11.47a26.559,26.559,0,0,1-3.35-.043,1.817,1.817,0,0,1-1.8-2.113V513.037h1.68a1.541,1.541,0,0,1,1.08.431,1.369,1.369,0,0,1,.47,1.035v1.94h1.92v0.6a1.349,1.349,0,0,1-.47,1.057,1.648,1.648,0,0,1-1.12.409h-0.33V524.9a0.748,0.748,0,0,0,.93.734h0.99v2.241Zm7.07,0a26.578,26.578,0,0,1-3.35-.043,1.817,1.817,0,0,1-1.8-2.113V513.037h1.69a1.535,1.535,0,0,1,1.07.431,1.335,1.335,0,0,1,.47,1.035v1.94h1.92v0.6a1.318,1.318,0,0,1-.47,1.057,1.63,1.63,0,0,1-1.12.409h-0.33V524.9a0.752,0.752,0,0,0,.94.734h0.98v2.241Zm10.21-3.536h2.34a4.671,4.671,0,0,1-1.96,2.761,6.345,6.345,0,0,1-3.65.991,5.448,5.448,0,0,1-4.17-1.6,6.136,6.136,0,0,1-1.5-4.442,6.058,6.058,0,0,1,1.45-4.312,5.448,5.448,0,0,1,4.17-1.595,5.865,5.865,0,0,1,4.35,1.552,6.23,6.23,0,0,1,1.5,4.442v0.474a0.732,0.732,0,0,1-.04.3h-8.11a2.852,2.852,0,0,0,.71,1.983,2.285,2.285,0,0,0,1.82.69,2.824,2.824,0,0,0,1.36-.3,0.707,0.707,0,0,0,.26-0.151c0.08-.071.16-0.151,0.26-0.237a0.9,0.9,0,0,1,.35-0.345A1.472,1.472,0,0,1,1285.04,524.334Zm-5.62-3.363h4.78a2.62,2.62,0,0,0-.66-1.724,2.337,2.337,0,0,0-1.73-.6A2.25,2.25,0,0,0,1279.42,520.971Zm9.93,6.9v-5.562a6.6,6.6,0,0,1,.54-2.825,4.7,4.7,0,0,1,1.48-1.832,6.03,6.03,0,0,1,2.08-.949,10.106,10.106,0,0,1,2.46-.3h0.47v3.062h-1.08a2.9,2.9,0,0,0-2.01.6,2.458,2.458,0,0,0-.66,1.9v5.907h-3.28Zm8.63,0V516.055a2.932,2.932,0,0,1,.88-2.328,4.22,4.22,0,0,1,2.77-.733,5.334,5.334,0,0,1,.75.043,5.424,5.424,0,0,1,.79.043v2.372h-0.84a1.9,1.9,0,0,0-.94.173,0.834,0.834,0,0,0-.23.689v0.777h2.01v0.646a1.314,1.314,0,0,1-.47,1.056,1.574,1.574,0,0,1-1.07.411h-0.47v8.666h-3.18Zm6.83-14.833h1.69a1.669,1.669,0,0,1,1.13.41,1.292,1.292,0,0,1,.46,1.013v13.41h-3.28V513.037Zm6.89,18.887v-2.372h0.89a2.4,2.4,0,0,0,1.48-.409,1.052,1.052,0,0,0,.21-1.316l-4.36-11.427h3.61l2.53,8.107,2.2-7.072a1.367,1.367,0,0,1,1.5-1.035H1322l-4.77,13.066a4.452,4.452,0,0,1-1.41,2.026,5.5,5.5,0,0,1-2.76.518h-0.66a1.757,1.757,0,0,0-.35-0.065C1311.91,531.931,1311.8,531.924,1311.7,531.924Z" transform="translate(-1236 -498.125)"/>
</svg>
