<svg id="corporate" xmlns="http://www.w3.org/2000/svg" width="125" height="34" viewBox="0 0 125 34">
  <defs>
    <style>
      .cls-1 {
        fill: #25b3ef;
      }

      .cls-1, .cls-2 {
        fill-rule: evenodd;
      }

      .cls-2 {
        fill: #303030;
      }
    </style>
  </defs>
  <path class="cls-1" d="M1245.82,365a7.98,7.98,0,0,1-.77-0.725,8.425,8.425,0,0,1-1.62-2.518,9.039,9.039,0,0,1-.69-3.086l-0.01-13.908v-0.043a5.489,5.489,0,0,0-.42-1.882,5.083,5.083,0,0,0-.99-1.538,4.828,4.828,0,0,0-1.53-1.108,4.527,4.527,0,0,0-3.75,0,4.792,4.792,0,0,0-1.54,1.109,5.167,5.167,0,0,0-1.03,1.646,5.535,5.535,0,0,0-.38,2.016v10.277h3.39V344.967a1.7,1.7,0,0,1,.11-0.594,1.533,1.533,0,0,1,.31-0.492,1.436,1.436,0,0,1,.46-0.331,1.347,1.347,0,0,1,.55-0.12,1.373,1.373,0,0,1,.56.119,1.42,1.42,0,0,1,.45.329,1.444,1.444,0,0,1,.3.461,0.813,0.813,0,0,1,.12.47v13.747h-9.33V344.969a8.874,8.874,0,0,1,.62-3.308,8.609,8.609,0,0,1,1.69-2.7,8,8,0,0,1,2.51-1.818,7.435,7.435,0,0,1,6.16,0,7.851,7.851,0,0,1,2.51,1.817,8.433,8.433,0,0,1,1.62,2.517,8.817,8.817,0,0,1,.69,3.087l0.01,0.118V365m6.17,0a7.98,7.98,0,0,1-.77-0.725,8.425,8.425,0,0,1-1.62-2.518,8.806,8.806,0,0,1-.64-2.48V344.6l-0.01-.2a12.717,12.717,0,0,0-.96-4.311,11.891,11.891,0,0,0-2.27-3.514,11.046,11.046,0,0,0-3.17-2.377,7.414,7.414,0,0,1,4.61.506,8,8,0,0,1,2.52,1.817,8.829,8.829,0,0,1,1.62,2.517,9.285,9.285,0,0,1,.69,3.087V365" transform="translate(-1230 -332)"/>
  <path id="Corporate-2" data-name="Corporate" class="cls-2" d="M1266.48,360.75h2.29a5.423,5.423,0,0,0,2.85-.739,4.97,4.97,0,0,0,1.91-2.1,6.839,6.839,0,0,0,.68-3.143h-2.89a3.707,3.707,0,0,1-.71,2.382,2.232,2.232,0,0,1-1.84.9h-2.29a2.216,2.216,0,0,1-1.85-.915,3.81,3.81,0,0,1-.7-2.393v-3.793a3.757,3.757,0,0,1,.72-2.392,2.314,2.314,0,0,1,1.91-.915h2.26a2.217,2.217,0,0,1,1.78.805,3.2,3.2,0,0,1,.68,2.128h2.89a6.169,6.169,0,0,0-.67-2.944,4.8,4.8,0,0,0-1.88-1.974,5.469,5.469,0,0,0-2.8-.706h-2.26a5.752,5.752,0,0,0-2.92.728,4.975,4.975,0,0,0-1.96,2.062,6.6,6.6,0,0,0-.69,3.076v4.058a6.724,6.724,0,0,0,.68,3.076,4.964,4.964,0,0,0,1.93,2.062,5.6,5.6,0,0,0,2.88.728h0Zm12.52,0h1.91a5.063,5.063,0,0,0,2.39-.541,3.955,3.955,0,0,0,1.61-1.532,4.524,4.524,0,0,0,.57-2.294V353.8a4.583,4.583,0,0,0-.57-2.3,4.01,4.01,0,0,0-1.61-1.555,4.97,4.97,0,0,0-2.37-.551h-1.91a4.97,4.97,0,0,0-2.37.551,4.01,4.01,0,0,0-1.61,1.555,4.583,4.583,0,0,0-.57,2.3v2.58a4.623,4.623,0,0,0,.56,2.294,3.869,3.869,0,0,0,1.6,1.532,4.981,4.981,0,0,0,2.37.541h0Zm0.04-2.58a1.492,1.492,0,0,1-1.21-.563,2.227,2.227,0,0,1-.47-1.466V354a2.23,2.23,0,0,1,.47-1.467,1.516,1.516,0,0,1,1.23-.562h1.83a1.516,1.516,0,0,1,1.23.562,2.23,2.23,0,0,1,.47,1.467v2.139a2.227,2.227,0,0,1-.47,1.466,1.543,1.543,0,0,1-1.25.563h-1.83Zm7.42,2.4h2.89v-5.932a2.446,2.446,0,0,1,.7-1.808,2.476,2.476,0,0,1,1.83-.706h1.44v-2.6h-1.44a3.269,3.269,0,0,0-1.58.408,3,3,0,0,0-1.16,1.048v-1.412h-2.68v11Zm7.08,4.411h2.89v-5.293a3.292,3.292,0,0,0,1.07.772,2.952,2.952,0,0,0,1.22.287h1.39a4.228,4.228,0,0,0,2.21-.574,3.9,3.9,0,0,0,1.48-1.621,5.194,5.194,0,0,0,.54-2.414v-2.47a4.5,4.5,0,0,0-.54-2.227,3.682,3.682,0,0,0-1.51-1.511,4.567,4.567,0,0,0-2.25-.54h-1.34a2.817,2.817,0,0,0-1.35.375,3.276,3.276,0,0,0-1.13.992v-1.191h-2.68v15.415Zm4.86-6.814a1.715,1.715,0,0,1-1.32-.6,2.633,2.633,0,0,1-.65-1.566v-2.183a3.02,3.02,0,0,1,.81-1.334,1.662,1.662,0,0,1,1.16-.518h1.3a1.626,1.626,0,0,1,1.27.529,2.031,2.031,0,0,1,.47,1.389v2.029a2.642,2.642,0,0,1-.46,1.632,1.507,1.507,0,0,1-1.26.618h-1.32Zm11.02,2.58h1.91a5.063,5.063,0,0,0,2.39-.541,3.869,3.869,0,0,0,1.6-1.532,4.43,4.43,0,0,0,.58-2.294V353.8a4.487,4.487,0,0,0-.58-2.3,3.923,3.923,0,0,0-1.6-1.555,4.97,4.97,0,0,0-2.37-.551h-1.91a4.914,4.914,0,0,0-2.37.551,3.948,3.948,0,0,0-1.61,1.555,4.583,4.583,0,0,0-.57,2.3v2.58a4.623,4.623,0,0,0,.56,2.294,3.869,3.869,0,0,0,1.6,1.532,4.981,4.981,0,0,0,2.37.541h0Zm0.04-2.58a1.492,1.492,0,0,1-1.21-.563,2.174,2.174,0,0,1-.47-1.466V354a2.177,2.177,0,0,1,.47-1.467,1.516,1.516,0,0,1,1.23-.562h1.83a1.516,1.516,0,0,1,1.23.562,2.23,2.23,0,0,1,.47,1.467v2.139a2.227,2.227,0,0,1-.47,1.466,1.543,1.543,0,0,1-1.25.563h-1.83Zm7.42,2.4h2.89v-5.932a2.446,2.446,0,0,1,.7-1.808,2.476,2.476,0,0,1,1.83-.706h1.44v-2.6h-1.44a3.307,3.307,0,0,0-1.59.408,2.97,2.97,0,0,0-1.15,1.048v-1.412h-2.68v11Zm10.09,0.177h1.32a3.064,3.064,0,0,0,1.47-.408,3.915,3.915,0,0,0,1.25-1.092v1.323h2.68v-7.431a3.461,3.461,0,0,0-1.15-2.724,4.353,4.353,0,0,0-3.02-1.025h-1.82a4.411,4.411,0,0,0-2.99.981,3.251,3.251,0,0,0-1.14,2.591h2.81a0.937,0.937,0,0,1,.36-0.772,1.5,1.5,0,0,1,.96-0.286h1.82a1.263,1.263,0,0,1,.93.342,1.2,1.2,0,0,1,.35.893v1.146a5.393,5.393,0,0,0-1.17-.419,5.076,5.076,0,0,0-1.19-.154h-1.3a4.352,4.352,0,0,0-2.8.849,2.718,2.718,0,0,0-1.06,2.238v0.816a2.827,2.827,0,0,0,1.02,2.272,4,4,0,0,0,2.67.86h0Zm0.39-2.294a1.513,1.513,0,0,1-.93-0.264,0.83,0.83,0,0,1-.35-0.684v-0.573a0.879,0.879,0,0,1,.32-0.706,1.256,1.256,0,0,1,.83-0.265h1.34a5.136,5.136,0,0,1,1.28.155,2.563,2.563,0,0,1,.95.419v0.375a2.348,2.348,0,0,1-.89,1.124,2.44,2.44,0,0,1-1.41.419h-1.14Zm12.24,2.117h2.04v-2.558h-1.83a0.849,0.849,0,0,1-.71-0.287,1.464,1.464,0,0,1-.22-0.9v-4.7h2.76v-2.558h-2.76v-3.33h-2.81v3.33h-1.95v2.558h1.87v4.83a3.759,3.759,0,0,0,.87,2.734,3.706,3.706,0,0,0,2.74.882h0Zm6.8,0.177h1.62a5.76,5.76,0,0,0,2.37-.463,3.651,3.651,0,0,0,1.6-1.324,3.4,3.4,0,0,0,.58-1.962h-2.85a1.055,1.055,0,0,1-.46.893,1.934,1.934,0,0,1-1.2.342h-1.66a1.649,1.649,0,0,1-1.21-.441,1.563,1.563,0,0,1-.45-1.169V356.1h7.87v-2.338a4.214,4.214,0,0,0-1.23-3.175,4.542,4.542,0,0,0-3.28-1.191h-1.7a4.97,4.97,0,0,0-2.37.551,3.941,3.941,0,0,0-1.6,1.544,4.427,4.427,0,0,0-.58,2.293v2.845a3.971,3.971,0,0,0,.58,2.15,3.827,3.827,0,0,0,1.6,1.455,5.217,5.217,0,0,0,2.37.519h0Zm-1.7-6.815v-0.066a2.185,2.185,0,0,1,.47-1.455,1.531,1.531,0,0,1,1.23-.551h1.72a1.477,1.477,0,0,1,1.19.518,2.027,2.027,0,0,1,.45,1.378v0.176h-5.06Z" transform="translate(-1230 -332)"/>
  <path id="Bussiness" class="cls-1" d="M1314.92,340.455h3.29a2.314,2.314,0,0,0,1.51-.463,1.71,1.71,0,0,0,.57-1.41,1.863,1.863,0,0,0-.36-1.194,1.668,1.668,0,0,0-.96-0.6V336.75a1.6,1.6,0,0,0,.81-0.6,1.639,1.639,0,0,0,.32-1.029,1.6,1.6,0,0,0-.52-1.255,1.955,1.955,0,0,0-1.37-.474h-3.29v7.06Zm0.95-4.044V334.25h2.23a1.095,1.095,0,0,1,.73,1.857,1.085,1.085,0,0,1-.81.3h-2.15Zm0,3.19v-2.336h2.25a1.065,1.065,0,0,1,1.21,1.194,1.009,1.009,0,0,1-1.14,1.142h-2.32Zm6.65,0.978a1.982,1.982,0,0,0,1.76-.855h0.07l0.1,0.731h0.66v-5.413h-0.87v3.2a1.744,1.744,0,0,1-.19.844,1.336,1.336,0,0,1-.51.551,1.308,1.308,0,0,1-.69.19,1.139,1.139,0,0,1-.8-0.252,1.163,1.163,0,0,1-.28-0.9v-3.633h-0.87v3.694a1.977,1.977,0,0,0,.42,1.405,1.585,1.585,0,0,0,1.2.438h0Zm5.21,0a2.569,2.569,0,0,0,1.54-.417,1.432,1.432,0,0,0,.58-1.251,1.3,1.3,0,0,0-.27-0.859,1.677,1.677,0,0,0-.66-0.484,8.6,8.6,0,0,0-1-.324,7.2,7.2,0,0,1-.7-0.206,1.246,1.246,0,0,1-.41-0.247,0.515,0.515,0,0,1-.17-0.391,0.675,0.675,0,0,1,.24-0.509,1.212,1.212,0,0,1,.83-0.221,1.34,1.34,0,0,1,.88.236,0.761,0.761,0,0,1,.27.6V336.6h0.85l0.01-.2a1.3,1.3,0,0,0-.22-0.746,1.556,1.556,0,0,0-.66-0.535,2.426,2.426,0,0,0-1.03-.2,2.453,2.453,0,0,0-1.51.417,1.316,1.316,0,0,0-.56,1.127,1.178,1.178,0,0,0,.25.787,1.613,1.613,0,0,0,.61.458,7.976,7.976,0,0,0,.94.309,7.312,7.312,0,0,1,.76.232,1.285,1.285,0,0,1,.46.3,0.65,0.65,0,0,1,.19.489,0.666,0.666,0,0,1-.33.592,1.539,1.539,0,0,1-.84.211,1.685,1.685,0,0,1-.95-0.242,0.8,0.8,0,0,1-.37-0.726v-0.1h-0.86a0.176,0.176,0,0,1-.01.057v0.17a1.373,1.373,0,0,0,.23.782,1.537,1.537,0,0,0,.71.581,2.858,2.858,0,0,0,1.2.222h0Zm4.46,0a2.6,2.6,0,0,0,1.55-.417,1.456,1.456,0,0,0,.58-1.251,1.252,1.252,0,0,0-.28-0.859,1.677,1.677,0,0,0-.66-0.484,8,8,0,0,0-1-.324,6.869,6.869,0,0,1-.69-0.206,1.2,1.2,0,0,1-.42-0.247,0.515,0.515,0,0,1-.17-0.391,0.675,0.675,0,0,1,.24-0.509,1.23,1.23,0,0,1,.83-0.221,1.322,1.322,0,0,1,.88.236,0.77,0.77,0,0,1,.28.6V336.6h0.85l0.01-.2a1.384,1.384,0,0,0-.22-0.746,1.556,1.556,0,0,0-.66-0.535,2.506,2.506,0,0,0-1.04-.2,2.473,2.473,0,0,0-1.51.417,1.341,1.341,0,0,0-.56,1.127,1.178,1.178,0,0,0,.25.787,1.646,1.646,0,0,0,.62.458,6.9,6.9,0,0,0,.94.309,7.834,7.834,0,0,1,.75.232,1.423,1.423,0,0,1,.47.3,0.683,0.683,0,0,1,.18.489,0.666,0.666,0,0,1-.33.592,1.539,1.539,0,0,1-.84.211,1.708,1.708,0,0,1-.95-0.242,0.823,0.823,0,0,1-.37-0.726v-0.1h-0.86v0.057a0.706,0.706,0,0,0-.01.17,1.454,1.454,0,0,0,.23.782,1.59,1.59,0,0,0,.71.581,2.858,2.858,0,0,0,1.2.222h0Zm2.68-6.587h0.87v-0.977h-0.87v0.977Zm0,6.463h0.88v-5.413h-0.88v5.413Zm1.71,0h0.87v-3.2a1.744,1.744,0,0,1,.19-0.844,1.342,1.342,0,0,1,.51-0.551,1.308,1.308,0,0,1,.69-0.19,1.139,1.139,0,0,1,.8.252,1.163,1.163,0,0,1,.28.9v3.633h0.87v-3.694a1.978,1.978,0,0,0-.42-1.405,1.585,1.585,0,0,0-1.2-.438,1.982,1.982,0,0,0-1.76.855h-0.07l-0.1-.731h-0.66v5.413Zm7.23,0.124a2.493,2.493,0,0,0,1.62-.51,1.764,1.764,0,0,0,.63-1.456h-0.85a1.08,1.08,0,0,1-.39.916,1.6,1.6,0,0,1-1.01.3,1.448,1.448,0,0,1-1.16-.447,2.376,2.376,0,0,1-.43-1.384h3.84v-0.453a2.912,2.912,0,0,0-.56-2,2.159,2.159,0,0,0-1.69-.623,2.373,2.373,0,0,0-1.87.69,4,4,0,0,0,0,4.281,2.373,2.373,0,0,0,1.87.69h0Zm-1.57-3.335a2.011,2.011,0,0,1,.45-1.2,1.526,1.526,0,0,1,1.12-.37,1.3,1.3,0,0,1,1.34,1.574h-2.91Zm6.16,3.335a2.623,2.623,0,0,0,1.55-.417,1.456,1.456,0,0,0,.58-1.251,1.252,1.252,0,0,0-.28-0.859,1.677,1.677,0,0,0-.66-0.484,8,8,0,0,0-1-.324,6.14,6.14,0,0,1-.69-0.206,1.2,1.2,0,0,1-.42-0.247,0.515,0.515,0,0,1-.17-0.391,0.675,0.675,0,0,1,.24-0.509,1.23,1.23,0,0,1,.83-0.221,1.322,1.322,0,0,1,.88.236,0.761,0.761,0,0,1,.27.6V336.6h0.86l0.01-.2a1.312,1.312,0,0,0-.23-0.746,1.443,1.443,0,0,0-.66-0.535,2.426,2.426,0,0,0-1.03-.2,2.473,2.473,0,0,0-1.51.417,1.341,1.341,0,0,0-.56,1.127,1.178,1.178,0,0,0,.25.787,1.646,1.646,0,0,0,.62.458,7.185,7.185,0,0,0,.93.309,7.312,7.312,0,0,1,.76.232,1.423,1.423,0,0,1,.47.3,0.683,0.683,0,0,1,.18.489,0.666,0.666,0,0,1-.33.592,1.539,1.539,0,0,1-.84.211,1.708,1.708,0,0,1-.95-0.242,0.823,0.823,0,0,1-.37-0.726v-0.1h-0.86v0.057a0.706,0.706,0,0,0-.01.17,1.454,1.454,0,0,0,.23.782,1.59,1.59,0,0,0,.71.581,2.858,2.858,0,0,0,1.2.222h0Zm4.47,0a2.59,2.59,0,0,0,1.54-.417,1.432,1.432,0,0,0,.58-1.251,1.3,1.3,0,0,0-.27-0.859,1.677,1.677,0,0,0-.66-0.484,8.6,8.6,0,0,0-1-.324,7.2,7.2,0,0,1-.7-0.206,1.411,1.411,0,0,1-.42-0.247,0.507,0.507,0,0,1-.16-0.391,0.7,0.7,0,0,1,.23-0.509,1.243,1.243,0,0,1,.84-0.221,1.359,1.359,0,0,1,.88.236,0.761,0.761,0,0,1,.27.6V336.6h0.85l0.01-.2a1.3,1.3,0,0,0-.22-0.746,1.556,1.556,0,0,0-.66-0.535,2.458,2.458,0,0,0-1.03-.2,2.5,2.5,0,0,0-1.52.417,1.341,1.341,0,0,0-.56,1.127,1.183,1.183,0,0,0,.26.787,1.613,1.613,0,0,0,.61.458,7.4,7.4,0,0,0,.94.309,6.353,6.353,0,0,1,.75.232,1.327,1.327,0,0,1,.47.3,0.69,0.69,0,0,1,.19.489,0.666,0.666,0,0,1-.33.592,1.587,1.587,0,0,1-.84.211,1.743,1.743,0,0,1-.96-0.242,0.816,0.816,0,0,1-.36-0.726v-0.1h-0.87v0.057c0,0.031-.01.087-0.01,0.17a1.454,1.454,0,0,0,.23.782,1.59,1.59,0,0,0,.71.581,2.875,2.875,0,0,0,1.21.222h0Z" transform="translate(-1230 -332)"/>
</svg>
