<svg xmlns="http://www.w3.org/2000/svg" width="133.97" height="33.875" viewBox="0 0 133.97 33.875">
  <defs>
    <style>
      .cls-1 {
        fill: #303030;
      }

      .cls-1, .cls-2, .cls-3, .cls-4, .cls-5, .cls-6, .cls-7, .cls-8, .cls-9 {
        fill-rule: evenodd;
      }

      .cls-2 {
        fill: #456eb5;
      }

      .cls-3 {
        fill: #804f9f;
      }

      .cls-4 {
        fill: #e3acce;
      }

      .cls-5 {
        fill: #ee3e32;
      }

      .cls-6 {
        fill: #f27234;
      }

      .cls-7 {
        fill: #f7cb3b;
      }

      .cls-8 {
        fill: #5bb949;
      }

      .cls-9 {
        fill: #61c7f2;
      }
    </style>
  </defs>
  <path class="cls-1" d="M1430.77,357.267h-1.49v-6.609h-6.79v6.609h-1.5V343.224h1.5V349.2h6.79v-5.974h1.49v14.043Zm7.4,0.192a4.242,4.242,0,0,1-3.38-1.421,5.792,5.792,0,0,1-1.24-3.948,6.459,6.459,0,0,1,1.15-4.044,3.7,3.7,0,0,1,3.09-1.5,3.493,3.493,0,0,1,2.87,1.3,5.251,5.251,0,0,1,1.06,3.434v1.008h-6.65a4.38,4.38,0,0,0,.85,2.815,2.861,2.861,0,0,0,2.3.96,7.206,7.206,0,0,0,3.08-.71v1.421a7.1,7.1,0,0,1-1.46.524A7.635,7.635,0,0,1,1438.17,357.459Zm-0.4-9.577a2.294,2.294,0,0,0-1.85.826,3.93,3.93,0,0,0-.82,2.287h5.05a3.739,3.739,0,0,0-.62-2.311A2.092,2.092,0,0,0,1437.77,347.882Zm12.38,9.385-0.29-1.5h-0.07a4.155,4.155,0,0,1-1.44,1.34,4.11,4.11,0,0,1-1.8.35,2.81,2.81,0,0,1-3.06-3.1q0-3.189,4.68-3.343l1.64-.058V350.3a2.874,2.874,0,0,0-.49-1.83,1.931,1.931,0,0,0-1.57-.591,5.988,5.988,0,0,0-2.73.807l-0.45-1.22a6.633,6.633,0,0,1,1.57-.662,6.179,6.179,0,0,1,1.7-.241,3.474,3.474,0,0,1,2.56.836,3.66,3.66,0,0,1,.83,2.68v7.185h-1.08Zm-3.3-1.124a2.815,2.815,0,0,0,2.14-.816,3.176,3.176,0,0,0,.78-2.286V352.09l-1.46.067a4.979,4.979,0,0,0-2.52.591,1.837,1.837,0,0,0-.77,1.628,1.721,1.721,0,0,0,.48,1.316A1.894,1.894,0,0,0,1446.85,356.143Zm8.86,1.124h-1.46V342.321h1.46v14.946Zm6.22-1.124a4.346,4.346,0,0,0,.75-0.062,4.463,4.463,0,0,0,.57-0.13v1.22a2.523,2.523,0,0,1-.7.207,4.925,4.925,0,0,1-.83.081q-2.805,0-2.8-3.218v-6.263h-1.39V347.21l1.39-.663,0.61-2.247h0.85v2.439h2.8v1.239h-2.8v6.2a2.3,2.3,0,0,0,.41,1.46A1.4,1.4,0,0,0,1461.93,356.143Zm9.86,1.124v-6.81a2.91,2.91,0,0,0-.54-1.922,2.089,2.089,0,0,0-1.68-.633,2.65,2.65,0,0,0-2.23.9,4.929,4.929,0,0,0-.7,2.958v5.5h-1.46V342.321h1.46v4.524a10.2,10.2,0,0,1-.07,1.354h0.09a3.116,3.116,0,0,1,1.23-1.195,3.718,3.718,0,0,1,1.82-.438,3.539,3.539,0,0,1,2.66.918,4.081,4.081,0,0,1,.88,2.915v6.868h-1.46Zm2.93-10.528h1.57l2.12,6a24.634,24.634,0,0,1,.86,2.968h0.07q0.12-.49.48-1.676t2.39-7.3h1.57l-4.15,11.988a6.053,6.053,0,0,1-1.44,2.522,2.9,2.9,0,0,1-2.02.744,5.4,5.4,0,0,1-1.32-.163v-1.278a4.629,4.629,0,0,0,1.08.115,2.279,2.279,0,0,0,2.15-1.844l0.54-1.5Zm10.47,10.528V343.224h3.48V354.2h4.96v3.064h-8.44Zm10.23-13.592a1.657,1.657,0,0,1,.43-1.258,2.539,2.539,0,0,1,2.79.009,1.629,1.629,0,0,1,.44,1.249A1.84,1.84,0,0,1,1495.42,343.675Zm3.53,13.592h-3.44V346.384h3.44v10.883Zm8.5-8.069h-2.12v8.069h-3.44V349.2h-1.33v-1.844l1.4-.922v-0.183a4.789,4.789,0,0,1,.8-3.093,3.239,3.239,0,0,1,2.59-.941,7.011,7.011,0,0,1,1.3.115,9.636,9.636,0,0,1,1.42.4l-0.74,2.43a4.273,4.273,0,0,0-1.24-.192,0.648,0.648,0,0,0-.58.264,1.571,1.571,0,0,0-.18.86v0.288h2.12V349.2Zm6.18,8.261a5.1,5.1,0,0,1-3.87-1.446,5.724,5.724,0,0,1-1.38-4.116,6.284,6.284,0,0,1,1.28-4.231,4.546,4.546,0,0,1,3.64-1.474,4.6,4.6,0,0,1,3.49,1.282,5.129,5.129,0,0,1,1.23,3.694v1.671h-6.16a1.936,1.936,0,0,0,.61,1.431,2.274,2.274,0,0,0,1.57.519,6.909,6.909,0,0,0,1.67-.188,7.925,7.925,0,0,0,1.66-.638v2.7a5.72,5.72,0,0,1-1.68.624A10.523,10.523,0,0,1,1513.63,357.459Zm-0.2-8.712a1.359,1.359,0,0,0-1.02.418,2.088,2.088,0,0,0-.48,1.311h2.96a1.971,1.971,0,0,0-.41-1.258A1.293,1.293,0,0,0,1513.43,348.747Z" transform="translate(-1384.06 -332.125)"/>
  <g>
    <path class="cls-2" d="M1401.52,332.118v0.024a14.971,14.971,0,0,1,8.71,26.368,16.386,16.386,0,0,1-3.44,6.466A16.941,16.941,0,0,0,1401.52,332.118Z" transform="translate(-1384.06 -332.125)"/>
    <path class="cls-3" d="M1401.73,365.306a6.972,6.972,0,0,0-1.62-2.352c-0.19-.2-0.48-0.517-0.82-0.932a15.01,15.01,0,0,1-5.47-28.356,16.976,16.976,0,0,0,7.15,32.342c0.24,0,.48-0.007.71-0.017C1401.68,365.991,1401.86,366.008,1401.73,365.306Z" transform="translate(-1384.06 -332.125)"/>
    <path class="cls-4" d="M1395.48,354.448c-5.2-2.736-6.27-6.331-6.27-6.331a19.182,19.182,0,0,0,.37,3.172c0.72,2.835,2.77,6.876,8.58,9.128A18.724,18.724,0,0,1,1395.48,354.448Z" transform="translate(-1384.06 -332.125)"/>
    <path class="cls-5" d="M1395.15,348.159a1.85,1.85,0,1,1-1.85-1.85A1.852,1.852,0,0,1,1395.15,348.159Z" transform="translate(-1384.06 -332.125)"/>
    <path class="cls-6" d="M1403.34,365.32s0.19,0,.63-1.594c0.81-2.969-1.31-8.462-3.07-12.545-0.1-.217-0.19-0.431-0.28-0.643-0.12-.266-0.24-0.532-0.34-0.8-0.21-.48-0.4-0.943-0.58-1.387a14.681,14.681,0,0,1-.96-5.313c-5.22,9.2.39,16.627,2.54,18.86C1402.5,363.171,1403.39,364.677,1403.34,365.32Z" transform="translate(-1384.06 -332.125)"/>
    <path class="cls-7" d="M1401.11,337.107s-1.92,5.756,0,10.576,5.88,12.307,4.25,16.518c0,0,5.27-5.428,3.22-11.745S1402.93,345.015,1401.11,337.107Z" transform="translate(-1384.06 -332.125)"/>
    <path class="cls-8" d="M1409.42,343.04a1.975,1.975,0,1,1-1.97-1.977A1.973,1.973,0,0,1,1409.42,343.04Z" transform="translate(-1384.06 -332.125)"/>
    <path class="cls-9" d="M1412.26,340.461c-0.08,4.094-2.19,5.959-3.95,7.6a20.835,20.835,0,0,1,1.77,3.988,11.591,11.591,0,0,1,.46,2A12.442,12.442,0,0,0,1412.26,340.461Z" transform="translate(-1384.06 -332.125)"/>
  </g>
</svg>
