<svg id="organic" xmlns="http://www.w3.org/2000/svg" width="103" height="34" viewBox="0 0 103 34">
  <defs>
    <style>
      .cls-1 {
        fill: #19831b;
      }

      .cls-1, .cls-2 {
        fill-rule: evenodd;
      }

      .cls-2 {
        fill: #221f1f;
      }
    </style>
  </defs>
  <path class="cls-1" d="M1104.13,425.007c-5.5-5.047-9.32,2.457-10.05,4.052-0.11.03-.23,0.059-0.34,0.094a7.664,7.664,0,0,0-1.1.414,9.877,9.877,0,0,0-1.06.529,9.488,9.488,0,0,0-.99.644,3.809,3.809,0,0,0-.51.382c1.5-2.5,5.15-9.4-.82-9.118,0.02,0.11-5.98.247,0.09,9.745-0.19.176-.37,0.36-0.55,0.549a8.87,8.87,0,0,0-.78.887l-0.73.938-0.62,1.007-0.3.5-0.26.529-0.52,1.059c-0.16.357-.28,0.731-0.42,1.1l-0.29.8a9.676,9.676,0,0,0-1.1-3.573c-1.84-2.839-4.63-.088-4.63-0.088-1.76,1.6-1.1,3.063-.64,3.7,2.57,3.213,4.52,3.113,5.52,2.848-0.01.048-.03,0.1-0.04,0.149a4.125,4.125,0,0,0-.13.568c-0.08.374-.11,0.745-0.16,1.117-0.03.372-.06,0.744-0.07,1.116,0.01,0.372-.01.744,0.03,1.115a15.431,15.431,0,0,0,.32,2.21c0.09,0.361.17,0.727,0.29,1.08l0.4,1.047,0.52,1a7.4,7.4,0,0,0,.62.933,5.521,5.521,0,0,0,.72.854,5.609,5.609,0,0,0,.81.769l0.88,0.678,0.96,0.539c0.17,0.084.32,0.184,0.49,0.254l0.52,0.193,1.02,0.37-0.95-.523-0.47-.253a4.517,4.517,0,0,1-.44-0.308l-0.87-.621-0.76-.733a5.67,5.67,0,0,1-.69-0.788,5,5,0,0,1-.6-0.848c-0.16-.305-0.37-0.582-0.51-0.9l-0.42-.946-0.31-.986c-0.08-.333-0.14-0.674-0.22-1.009s-0.1-.684-0.15-1.024-0.04-.69-0.07-1.033,0.01-.691.01-1.036,0.04-.688.07-1.031c0.05-.338.08-0.685,0.16-1.011,0.02-.1.05-0.2,0.07-0.294a9.651,9.651,0,0,0,2.22,1.586c4.95,2.256,4.87-1.481,4.73-1.943-1.43-4.71-4.85-2.611-6.48-1.246l0.34-1.292,0.37-1.056c0.13-.35.23-0.711,0.39-1.051l0.45-1.021,0.22-.512,0.28-.485,0.54-.973,0.63-.919a8.113,8.113,0,0,1,.69-0.877q0.24-.3.51-0.573c0.38,1.743,2.37,4.454,2.33,4.484,3.34,4.3,5.42.637,5.36,0.558,1.56-6.054-5.44-5.648-7.3-5.44a5.415,5.415,0,0,1,.67-0.62,9.321,9.321,0,0,1,.89-0.687,8.667,8.667,0,0,1,.95-0.609c0.16-.091.32-0.189,0.49-0.276l0.52-.24c0.06-.03.13-0.054,0.19-0.082C1106.24,432.986,1105.79,426.526,1104.13,425.007Z" transform="translate(-1078 -422)"/>
  <path id="_Organic" data-name="  Organic" class="cls-2" d="M1120.8,440.24a6.446,6.446,0,0,0-9.13,0,8.819,8.819,0,0,0,0,10.3,6.434,6.434,0,0,0,9.14,0A8.84,8.84,0,0,0,1120.8,440.24Zm-3.41,9.391a2.684,2.684,0,0,1-2.29.005,2.566,2.566,0,0,1-.95-0.791,4.169,4.169,0,0,1-.65-1.387,7.246,7.246,0,0,1-.25-2.059,7.622,7.622,0,0,1,.25-2.077,4.025,4.025,0,0,1,.66-1.405,2.723,2.723,0,0,1,.97-0.781,2.634,2.634,0,0,1,1.11-.237,2.707,2.707,0,0,1,1.13.246,2.589,2.589,0,0,1,.95.791,4.25,4.25,0,0,1,.66,1.381,7.724,7.724,0,0,1,.25,2.073,8.183,8.183,0,0,1-.22,1.977,4.2,4.2,0,0,1-.68,1.46A2.549,2.549,0,0,1,1117.39,449.631Zm13.89-7.677c-0.1-.012-0.21-0.021-0.34-0.027s-0.24-.01-0.35-0.01a3.376,3.376,0,0,0-1.31.305,6.088,6.088,0,0,0-1.67,1.232v-1.5h-2.93v10.209h2.93v-6.836a5.67,5.67,0,0,1,1.02-.31,6.078,6.078,0,0,1,1.11-.09c0.18,0,.41.012,0.68,0.036a2.3,2.3,0,0,1,.6.109h0.26v-3.118Zm10.52,0h-2.84l-0.11.454a4.057,4.057,0,0,0-1.1-.541,4.336,4.336,0,0,0-1.34-.195,3.842,3.842,0,0,0-1.6.355,3.607,3.607,0,0,0-1.31.99,4.846,4.846,0,0,0-.9,1.6,6.758,6.758,0,0,0-.31,2.182,6.215,6.215,0,0,0,1.03,3.928,3.585,3.585,0,0,0,2.95,1.29,3.509,3.509,0,0,0,1.43-.281,4.225,4.225,0,0,0,1.17-.764v0.191a4.322,4.322,0,0,1-.12,1.091,1.682,1.682,0,0,1-.36.745,1.754,1.754,0,0,1-.77.478,4.308,4.308,0,0,1-1.32.168,5.6,5.6,0,0,1-1.38-.2,8.086,8.086,0,0,1-1.3-.432h-0.36v2.555a13.039,13.039,0,0,0,1.6.309,13.5,13.5,0,0,0,1.87.127,8.06,8.06,0,0,0,2.09-.25,4.013,4.013,0,0,0,1.59-.813,3.55,3.55,0,0,0,1.02-1.537,7.05,7.05,0,0,0,.37-2.418v-9.036Zm-3.7,7.4a2.486,2.486,0,0,1-.86.154,1.782,1.782,0,0,1-1.45-.581,3.232,3.232,0,0,1-.49-2.055,3.321,3.321,0,0,1,.57-2.068,2.062,2.062,0,0,1,1.73-.741,3.593,3.593,0,0,1,.65.068,2.748,2.748,0,0,1,.62.186v4.628A3.3,3.3,0,0,1,1138.1,449.354Zm11.18,0.664a2.194,2.194,0,0,1-.89.2,2.734,2.734,0,0,1-.81-0.086,1.224,1.224,0,0,1-.45-0.267,0.758,0.758,0,0,1-.24-0.38,2.386,2.386,0,0,1-.05-0.517,1.244,1.244,0,0,1,.23-0.775,1.464,1.464,0,0,1,.67-0.448,5.616,5.616,0,0,1,1.05-.222c0.46-.064.89-0.114,1.28-0.15v2.12A2.761,2.761,0,0,1,1149.28,450.018Zm0.79,2.145h2.9v-6.946a3.194,3.194,0,0,0-1.11-2.695,5.933,5.933,0,0,0-3.6-.859,11.9,11.9,0,0,0-2.09.186q-1.035.188-1.5,0.323v2.464h0.27c0.23-.1.63-0.25,1.17-0.441a4.7,4.7,0,0,1,1.54-.287,4.044,4.044,0,0,1,1.82.323,1.2,1.2,0,0,1,.62,1.168v0.055q-1.29.081-2.49,0.254a6.617,6.617,0,0,0-2.02.582,3.126,3.126,0,0,0-1.26,1.118,3.361,3.361,0,0,0-.45,1.828,3.14,3.14,0,0,0,.88,2.3,2.9,2.9,0,0,0,2.17.9,4.633,4.633,0,0,0,1.02-.1,4.005,4.005,0,0,0,.89-0.323,4.878,4.878,0,0,0,.66-0.445c0.23-.188.42-0.349,0.58-0.482v1.082Zm14.73-6.646a4.278,4.278,0,0,0-.83-2.881,2.868,2.868,0,0,0-2.3-.964,3.481,3.481,0,0,0-1.6.364,7.615,7.615,0,0,0-1.49,1.045v-1.127h-2.93v10.209h2.93v-7.236a4.2,4.2,0,0,1,.89-0.464,2.383,2.383,0,0,1,.81-0.146,2.007,2.007,0,0,1,.87.155,1.017,1.017,0,0,1,.47.491,2.94,2.94,0,0,1,.2.9c0.03,0.41.05,0.82,0.05,1.232v5.064h2.93v-6.646Zm5.62-3.563h-2.93v10.209h2.93V441.954Zm0.08-3.937h-3.09V440.5h3.09v-2.482Zm9.07,14.2a7.468,7.468,0,0,0,1.44-.577v-2.791h-0.41q-0.18.19-.39,0.391a3.267,3.267,0,0,1-.49.382,3,3,0,0,1-.73.331,3.252,3.252,0,0,1-.99.141,2.263,2.263,0,0,1-1.83-.763,3.385,3.385,0,0,1-.64-2.237,3.724,3.724,0,0,1,.62-2.259,2.125,2.125,0,0,1,1.8-.832,2.89,2.89,0,0,1,.92.132,3.486,3.486,0,0,1,.73.332,3.849,3.849,0,0,1,.59.427c0.16,0.146.29,0.273,0.41,0.382h0.41V442.49a7.4,7.4,0,0,0-1.47-.591,6.187,6.187,0,0,0-1.72-.227,6.682,6.682,0,0,0-2,.3,4.655,4.655,0,0,0-1.7.945,4.563,4.563,0,0,0-1.19,1.719,7.228,7.228,0,0,0-.03,4.827,4.4,4.4,0,0,0,1.12,1.673,4.613,4.613,0,0,0,1.71.981,7.083,7.083,0,0,0,2.18.319A6.048,6.048,0,0,0,1179.57,452.222Z" transform="translate(-1078 -422)"/>
  <path id="All" class="cls-2" d="M1116.24,423.555h-2.07l-4.23,11.633h1.57l1.14-3.242h5.03l1.14,3.242h1.65Zm-3.12,7.062,2.05-5.71,2.03,5.71h-4.08Zm10.48-7.585h-1.47v12.156h1.47V423.032Zm4.39,0h-1.46v12.156h1.46V423.032Z" transform="translate(-1078 -422)"/>
</svg>
