<svg height="512" viewBox="0 0 256 256" width="512" xmlns="http://www.w3.org/2000/svg"><path d="m103.332 131.5c.258.721.551 1.415.871 2.1l-6.463 6.463 12.708 12.708 6.463-6.463c.687.32 1.388.612 2.1.871v9.143h17.969v-9.143c.714-.259 1.415-.551 2.1-.871l6.463 6.463 12.708-12.708-6.461-6.463c.32-.687.612-1.381.871-2.1h9.139v-17.971h-9.143c-.259-.714-.551-1.415-.871-2.1l6.463-6.463-12.704-12.71-6.463 6.47c-.687-.32-1.388-.619-2.1-.878v-9.137h-17.969v9.136c-.714.259-1.415.558-2.1.878l-6.463-6.47-12.71 12.709 6.463 6.463c-.32.687-.612 1.388-.871 2.1h-9.132v17.973z" fill="#9e9e9e"/><circle cx="128" cy="122.513" fill="#f46275" r="11.441"/><path d="m26.094 25.77h40.611v30.285h-40.611z" fill="#63bce7"/><path d="m26.094 25.77h10v30.285h-10z" fill="#6377e7"/><path d="m108.262 25.77h40.611v30.285h-40.611z" fill="#63bce7"/><path d="m189.295 25.77h40.611v30.285h-40.611z" fill="#63bce7"/><path d="m26.094 188.971h40.611v30.285h-40.611z" fill="#f8af23"/><path d="m26.094 188.971h10v30.285h-10z" fill="#f87023"/><path d="m107.694 188.971h40.611v30.285h-40.611z" fill="#f8af23"/><path d="m189.295 188.971h40.611v30.285h-40.611z" fill="#f8af23"/><circle cx="46.399" cy="122.516" fill="#cecece" r="20.306"/><path d="m36.094 122.516a20.3 20.3 0 0 1 15.306-19.66 20.306 20.306 0 1 0 0 39.319 20.3 20.3 0 0 1 -15.306-19.659z" fill="#afafaf"/><circle cx="209.601" cy="122.513" fill="#cecece" r="20.306"/><path d="m219.906 25.77h10v30.285h-10z" fill="#63e2e7"/><path d="m219.906 122.513a20.3 20.3 0 0 0 -15.306-19.66 20.306 20.306 0 1 1 0 39.319 20.3 20.3 0 0 0 15.306-19.659z" fill="#e2e2e2"/><path d="m219.906 188.971h10v30.285h-10z" fill="#f8d323"/><g fill="#3f3679"><path d="m140.941 122.514a12.941 12.941 0 1 0 -12.941 12.94 12.956 12.956 0 0 0 12.941-12.94zm-22.883 0a9.941 9.941 0 1 1 9.941 9.94 9.953 9.953 0 0 1 -9.94-9.94z"/><path d="m27.323 228.73h-18a1.5 1.5 0 1 0 0 3h18a1.5 1.5 0 1 0 0-3z"/><path d="m246.68 228.73h-18a1.5 1.5 0 0 0 0 3h18a1.5 1.5 0 0 0 0-3z"/><path d="m218.479 228.73h-180.958a1.5 1.5 0 0 0 0 3h180.958a1.5 1.5 0 0 0 0-3z"/><path d="m9.32 220.757h237.36a1.5 1.5 0 0 0 0-3h-15.274v-28.785a1.5 1.5 0 0 0 -1.5-1.5h-18.806v-43.211a21.8 21.8 0 0 0 0-43.5v-43.206h18.806a1.5 1.5 0 0 0 1.5-1.5v-30.285a1.5 1.5 0 0 0 -1.5-1.5h-40.606a1.5 1.5 0 0 0 -1.5 1.5v13.642h-37.427v-13.642a1.5 1.5 0 0 0 -1.5-1.5h-40.611a1.5 1.5 0 0 0 -1.5 1.5v13.642h-38.562v-13.642a1.5 1.5 0 0 0 -1.5-1.5h-40.606a1.5 1.5 0 0 0 -1.5 1.5v30.285a1.5 1.5 0 0 0 1.5 1.5h18.806v43.213a21.8 21.8 0 0 0 0 43.5v43.208h-18.806a1.5 1.5 0 0 0 -1.5 1.5v28.785h-15.274a1.5 1.5 0 1 0 0 3zm58.88-15.143h37.99v12.143h-37.99zm40.99 12.143v-27.285h37.611v27.285zm40.611-12.143h37.999v12.143h-37.99zm78.6 12.143h-37.601v-27.285h37.611zm-39.101-30.285a1.5 1.5 0 0 0 -1.5 1.5v13.643h-37.99v-13.643a1.5 1.5 0 0 0 -1.5-1.5h-18.81v-29.655h7.484a1.5 1.5 0 0 0 1.5-1.5v-8.111l.269-.112 5.737 5.736a1.5 1.5 0 0 0 2.121 0l12.706-12.706a1.5 1.5 0 0 0 0-2.121l-5.736-5.736c.038-.09.076-.18.112-.269h8.107a1.5 1.5 0 0 0 1.5-1.5v-7.484h24.549a21.83 21.83 0 0 0 20.251 20.247v43.211zm-69.767-41.7c-.647-.235-1.293-.506-1.978-.825a1.5 1.5 0 0 0 -1.7.3l-5.405 5.405-10.585-10.589 5.405-5.405a1.5 1.5 0 0 0 .3-1.694c-.323-.692-.593-1.339-.826-1.979a1.5 1.5 0 0 0 -1.409-.986h-7.635v-14.97h7.638a1.5 1.5 0 0 0 1.409-.986c.233-.641.5-1.287.826-1.979a1.5 1.5 0 0 0 -.3-1.694l-5.405-5.405 10.582-10.587 5.405 5.405a1.5 1.5 0 0 0 1.694.3c.695-.324 1.342-.594 1.979-.826a1.5 1.5 0 0 0 .987-1.409v-7.639h8.032.019.019 6.9v7.638a1.5 1.5 0 0 0 .987 1.409c.639.233 1.286.5 1.979.826a1.5 1.5 0 0 0 1.694-.3l5.405-5.405 10.585 10.585-5.405 5.405a1.5 1.5 0 0 0 -.3 1.694c.323.692.593 1.339.826 1.979a1.5 1.5 0 0 0 1.409.986h7.635v14.974h-7.638a1.5 1.5 0 0 0 -1.409.986c-.233.641-.5 1.287-.826 1.979a1.5 1.5 0 0 0 .3 1.694l5.405 5.405-10.582 10.584-5.405-5.405a1.5 1.5 0 0 0 -1.7-.3c-.673.314-1.339.592-1.978.825a1.5 1.5 0 0 0 -.987 1.409v7.638h-14.964v-7.635a1.5 1.5 0 0 0 -.987-1.409zm108.877-23.257a18.805 18.805 0 1 1 -18.81-18.807 18.826 18.826 0 0 1 18.806 18.806zm-37.61-95.245h37.611v27.285h-37.611zm-3 15.143v13.642a1.5 1.5 0 0 0 1.5 1.5h18.8v43.211a21.831 21.831 0 0 0 -20.248 20.248h-24.552v-7.485a1.5 1.5 0 0 0 -1.5-1.5h-8.111c-.037-.089-.074-.179-.112-.269l5.736-5.736a1.5 1.5 0 0 0 0-2.121l-12.702-12.703a1.5 1.5 0 0 0 -2.121 0l-5.737 5.736-.269-.112v-8.115a1.5 1.5 0 0 0 -1.5-1.5h-6.917v-29.654h18.806a1.5 1.5 0 0 0 1.5-1.5v-13.643zm-78.038-15.143h37.611v27.285h-37.611zm-82.168 0h37.606v27.285h-37.606zm39.106 30.285a1.5 1.5 0 0 0 1.5-1.5v-13.643h38.557v13.643a1.5 1.5 0 0 0 1.5 1.5h18.806v29.654h-8.052a1.5 1.5 0 0 0 -1.5 1.5v8.111l-.269.112-5.732-5.732a1.5 1.5 0 0 0 -2.121 0l-12.706 12.7a1.5 1.5 0 0 0 0 2.121l5.736 5.736c-.038.09-.076.18-.112.269h-8.107a1.5 1.5 0 0 0 -1.5 1.5v7.483h-24.553a21.831 21.831 0 0 0 -20.247-20.242v-43.212zm-39.106 64.961a18.805 18.805 0 1 1 18.806 18.805 18.827 18.827 0 0 1 -18.806-18.805zm20.306 21.748a21.831 21.831 0 0 0 20.248-20.252h24.552v7.488a1.5 1.5 0 0 0 1.5 1.5h8.111c.037.089.074.179.112.269l-5.74 5.731a1.5 1.5 0 0 0 0 2.121l12.706 12.706a1.5 1.5 0 0 0 2.121 0l5.736-5.736c.09.038.18.076.269.112v8.111a1.5 1.5 0 0 0 1.5 1.5h7.485v29.654h-18.806a1.5 1.5 0 0 0 -1.5 1.5v13.643h-37.994v-13.639a1.5 1.5 0 0 0 -1.5-1.5h-18.8zm-20.306 46.208h37.606v27.285h-37.606z"/></g></svg>