<svg height="512" viewBox="0 0 60 53" width="512" xmlns="http://www.w3.org/2000/svg"><g id="Page-1" fill="none" fill-rule="evenodd"><g id="001---Certificate" fill-rule="nonzero"><path id="Shape" d="m59 10v36c0 3.3137085-2.6862915 6-6 6h-22c1.1032019-.0032948 1.9967052-.8967981 2-2v-1c0-1.8565154-.7374979-3.6369928-2.0502525-4.9497475-1.3127547-1.3127546-3.0932321-2.0502525-4.9497475-2.0502525h-2c-2.69-2.02-2.22-4.93-1.61-6.63 2.8812319-1.1241318 5.1032479-3.4857123 6.05-6.43.1839434.0402183.3717114.0603363.56.06 1.6568542 0 3-1.3431458 3-3s-1.3431458-3-3-3c0 0 3-8-2-11s-18 2-21-4c0 0-.76 7.57 3 10.85v4.15c-1.65685425 0-3 1.3431458-3 3s1.34314575 3 3 3c.18828856.0003363.37605657-.0197817.56-.06.9467521 2.9442877 3.1687681 5.3058682 6.05 6.43.61 1.7 1.08 4.61-1.61 6.63h-2c-3.86599325 0-7 3.1340068-7 7v1c.00275976 1.0260606.77935991 1.8846352 1.8 1.99-3.2314757-.1077738-5.79640791-2.7567296-5.8-5.99v-36c0-3.3137085 2.6862915-6 6-6h31v18.86c-.1635871.1623984-.3571757.2914575-.57.38l-.19.07c-.5447532.2328432-.9614553.690895-1.1418739 1.2551832-.1804187.5642881-.1067492 1.1791254.2018739 1.6848168l.11.19c.3999226.6500848.3999226 1.4699152 0 2.12l-.11.19c-.3086231.5056914-.3822926 1.1205287-.2018739 1.6848168.1804186.5642882.5971207 1.02234 1.1418739 1.2551832l.19.07c.2500744.1048984.4750325.2616874.66.46l-3.58 6.22c-.1996978.3508811-.1688144.7874258.0782932 1.1066977.2471077.3192719.6619609.4586345 1.0517068.3533023l.8-.21c.254665-.0708032.5270817-.0366095.7563478.0949367.2292661.1315461.3962615.3494741.4636522.6050633l.22.8c.1030744.3907338.4311858.6810291.8315675.735726.4003817.054697.794333-.1369558.9984325-.485726l3.26-5.66c.1405442.1006372.26817.2181873.38.35l.12.15c.3772925.4558928.9382332.7197867 1.53.7197867s1.1527075-.2638939 1.53-.7197867l.12-.15c.1091782-.1343318.2371628-.2522123.38-.35l3.26 5.66c.2040995.3487702.5980508.540423.9984325.485726.4003817-.0546969.7284931-.3449922.8315675-.735726l.22-.8c.0673907-.2555892.2343861-.4735172.4636522-.6050633.2292661-.1315462.5016828-.1657399.7563478-.0949367l.8.21c.3897459.1053322.8045991-.0340304 1.0517068-.3533023.2471076-.3192719.277991-.7558166.0782932-1.1066977l-3.58-6.22c.1849675-.1983126.4099256-.3551016.66-.46l.19-.07c.5447532-.2328432.9614553-.690895 1.1418739-1.2551832.1804187-.5642881.1067492-1.1791254-.2018739-1.6848168l-.11-.19c-.3999226-.6500848-.3999226-1.4699152 0-2.12l.11-.19c.3086231-.5056914.3822926-1.1205287.2018739-1.6848168-.1804186-.5642882-.5971207-1.02234-1.1418739-1.2551832l-.19-.07c-.2128243-.0885425-.4064129-.2176016-.57-.38v-18.86h1c1.5912989 0 3.1174224.63214104 4.2426407 1.75735931s1.7573593 2.65134175 1.7573593 4.24264069z" fill="#ffe0e2"/><path id="Shape" d="m43.5 36.309c-.009-.011-.021-.018-.03-.029l-.12-.15c-.11183-.1318127-.2394558-.2493628-.38-.35l-.685 1.19c.4715801-.0662398.9032039-.3010574 1.215-.661z" fill="#ffc9cc"/><path id="Shape" d="m19.607 10.975c-2.073-.1-4.43.074-6.723.145 2.137.093 4.49-.073 6.723-.145z" fill="#ffc9cc"/><g fill="#ff9ea1"><path id="Shape" d="m47.29 41.44c.2040995.3487702.5980508.540423.9984325.485726.4003817-.0546969.7284931-.3449922.8315675-.735726l.22-.8c.0324187-.1165133.0867183-.2257913.16-.322l-2.47-4.288c-.1428372.0977877-.2708218.2156682-.38.35l-.12.15c-.4427163.5315601-1.1309666.793209-1.815.69z"/><path id="Shape" d="m34.43 23.24-.19.07c-.5447532.2328432-.9614553.690895-1.1418739 1.2551832-.1804187.5642881-.1067492 1.1791254.2018739 1.6848168l.11.19c.3999226.6500848.3999226 1.4699152 0 2.12l-.11.19c-.3086231.5056914-.3822926 1.1205287-.2018739 1.6848168.1804186.5642882.5971207 1.02234 1.1418739 1.2551832l.19.07c.2500744.1048984.4750325.2616874.66.46l-3.58 6.22c-.1996978.3508811-.1688144.7874258.0782932 1.1066977.2471077.3192719.6619609.4586345 1.0517068.3533023l.8-.21c.254665-.0708032.5270817-.0366095.7563478.0949367.2292661.1315461.3962615.3494741.4636522.6050633l.22.8c.1030744.3907338.4311858.6810291.8315675.735726.4003817.054697.794333-.1369558.9984325-.485726l.79-1.372c-.2381862-.3370316-.6623032-.4882733-1.06-.378l-.8.21c-.3897459.1053322-.8045991-.0340304-1.0517068-.3533023-.2471076-.3192719-.277991-.7558166-.0782932-1.1066977l3.58-6.22c-.1849675-.1983126-.4099256-.3551016-.66-.46l-.19-.07c-.5447532-.2328432-.9614553-.690895-1.1418739-1.2551832-.1804187-.5642881-.1067492-1.1791254.2018739-1.6848168l.11-.19c.3999226-.6500848.3999226-1.4699152 0-2.12l-.11-.19c-.3086231-.5056914-.3822926-1.1205287-.2018739-1.6848168.1804186-.5642882.5971207-1.02234 1.1418739-1.2551832l.19-.07c.2128243-.0885425.4064129-.2176016.57-.38v-18.86h-3v18.86c-.1635871.1623984-.3571757.2914575-.57.38z"/><path id="Shape" d="m9.56 28.94c-.18394343.0402183-.37171144.0603363-.56.06-1.65685425 0-3-1.3431458-3-3s1.34314575-3 3-3v-4.15c-2.385-2.081-2.95-5.883-3.045-8.388-1.27306341-.3953189-2.33635703-1.28121704-2.955-2.462 0 0-.76 7.57 3 10.85v4.15c-1.65685425 0-3 1.3431458-3 3s1.34314575 3 3 3c.18828856.0003363.37605657-.0197817.56-.06.94675215 2.9442877 3.16876805 5.3058682 6.05 6.43.61 1.7 1.08 4.61-1.61 6.63h-2c-3.86599325 0-7 3.1340068-7 7v.312c1.07124457 1.6180315 2.86046905 2.6162697 4.8 2.678-1.02064009-.1053648-1.79724024-.9639394-1.8-1.99v-1c0-3.8659932 3.13400675-7 7-7h2c2.69-2.02 2.22-4.93 1.61-6.63-2.8812319-1.1241318-5.1032479-3.4857123-6.05-6.43z"/><path id="Shape" d="m53 4h-1v.35c2.3949087.84672622 3.9970976 3.10981801 4 5.65v36c0 3.3137085-2.6862915 6-6 6h3c3.3137085 0 6-2.6862915 6-6v-36c0-3.3137085-2.6862915-6-6-6z"/></g><path id="Shape" d="m32 26c0 1.6568542-1.3431458 3-3 3-.1882886.0003363-.3760566-.0197817-.56-.06-.9467521 2.9442877-3.1687681 5.3058682-6.05 6.43-2.181952.8399727-4.598048.8399727-6.78 0-2.8812319-1.1241318-5.1032479-3.4857123-6.05-6.43-.18394343.0402183-.37171144.0603363-.56.06-1.65685425 0-3-1.3431458-3-3s1.34314575-3 3-3v-4.15c-3.76-3.28-3-10.85-3-10.85 3 6 16 1 21 4s2 11 2 11c1.6568542 0 3 1.3431458 3 3z" fill="#ffe7e8"/><path id="Shape" d="m12.884 11.12c-3.091-.133-5.729-.811-6.884-3.12-.06542288.81896984-.0804512 1.6411864-.045 2.462 2.25212737.6298106 4.5985804.8526373 6.929.658z" fill="#ffc9cc"/><path id="Shape" d="m29 23s3-8-2-11c-1.745-1.047-4.465-1.119-7.393-1.025 1.5252308-.0145466 3.0317026.3369521 4.393 1.025 5 3 2 11 2 11 1.6568542 0 3 1.3431458 3 3s-1.3431458 3-3 3c-.1882886.0003363-.3760566-.0197817-.56-.06-.9467521 2.9442877-3.1687681 5.3058682-6.05 6.43-.6107945.232261-1.2442571.3998437-1.89.5 1.6453034.2761549 3.3346328.1034219 4.89-.5 2.8812319-1.1241318 5.1032479-3.4857123 6.05-6.43.1839434.0402183.3717114.0603363.56.06 1.6568542 0 3-1.3431458 3-3s-1.3431458-3-3-3z" fill="#ffc9cc"/><path id="Shape" d="m11 20c-.7369486-.2455387-1.41706757-.6366072-2-1.15" fill="#ffe7e8"/><path id="Shape" d="m24 42c0 2.7614237-2.2385763 5-5 5s-5-2.2385763-5-5c2.69-2.02 2.22-4.93 1.61-6.63 2.181952.8399727 4.598048.8399727 6.78 0-.61 1.7-1.08 4.61 1.61 6.63z" fill="#ffc9cc"/><path id="Shape" d="m33 49v1c-.0032948 1.1032019-.8967981 1.9967052-2 2h-24c-.06682574.0019152-.1336986-.0014284-.2-.01-1.02064009-.1053648-1.79724024-.9639394-1.8-1.99v-1c0-3.8659932 3.13400675-7 7-7h2c0 2.7614237 2.2385763 5 5 5s5-2.2385763 5-5h2c1.8565154 0 3.6369928.7374979 4.9497475 2.0502525 1.3127546 1.3127547 2.0502525 3.0932321 2.0502525 4.9497475z" fill="#ffe7e8"/><path id="Shape" d="m26 42h-2c0 .027-.007.051-.008.078 3.4470574.4891154 6.0086587 3.4404144 6.008 6.922v1c-.0032948 1.1032019-.8967981 1.9967052-2 2h3c1.1032019-.0032948 1.9967052-.8967981 2-2v-1c0-1.8565154-.7374979-3.6369928-2.0502525-4.9497475-1.3127547-1.3127546-3.0932321-2.0502525-4.9497475-2.0502525z" fill="#ffc9cc"/><path id="Shape" d="m42.97 35.78-3.26 5.66c-.2040995.3487702-.5980508.540423-.9984325.485726-.4003817-.0546969-.7284931-.3449922-.8315675-.735726l-.22-.8c-.0673907-.2555892-.2343861-.4735172-.4636522-.6050633-.2292661-.1315462-.5016828-.1657399-.7563478-.0949367l-.8.21c-.3897459.1053322-.8045991-.0340304-1.0517068-.3533023-.2471076-.3192719-.277991-.7558166-.0782932-1.1066977l3.58-6.22c.3374817.3413925.5429897.7913843.58 1.27l.01.21c.0386301.592219.3372569 1.1370148.8157175 1.4881431.4784606.3511284 1.0877394.4726182 1.6642825.3318569l.18-.05c.5625896-.1375487 1.1571803-.024467 1.63.31z" fill="#ffe7e8"/><path id="Shape" d="m52 4v18.86c-.3928241-.3438825-.6336787-.8291865-.67-1.35l-.01-.21c-.0386301-.592219-.3372569-1.1370148-.8157175-1.4881431-.4784606-.3511284-1.0877394-.4726182-1.6642825-.3318569l-.18.05c-.741042.1813714-1.5207199-.0746422-2.01-.66l-.12-.15c-.3772925-.4558928-.9382332-.7197867-1.53-.7197867s-1.1527075.2638939-1.53.7197867l-.12.15c-.4892801.5853578-1.268958.8413714-2.01.66l-.18-.05c-.5765431-.1407613-1.1858219-.0192715-1.6642825.3318569-.4784606.3511283-.7770874.8959241-.8157175 1.4881431l-.01.21c-.0363213.5208135-.2771759 1.0061175-.67 1.35v-18.86c0-1.65685425 1.3431458-3 3-3h8c1.6568542 0 3 1.34314575 3 3z" fill="#ffe7e8"/><path id="Shape" d="m49 1h-3c1.6568542 0 3 1.34314575 3 3v15.459c.5565246-.0914782 1.1258046.056271 1.5675989.4068501.4417944.3505791.7150319.8713964.7524011 1.4341499l.01.21c.0363213.5208135.2771759 1.0061175.67 1.35v-18.86c0-.79564947-.3160705-1.55871121-.8786797-2.12132034-.5626091-.56260914-1.3256708-.87867966-2.1213203-.87867966z" fill="#ffc9cc"/><path id="Shape" d="m53.7 28.75c.3086231.5056914.3822926 1.1205287.2018739 1.6848168-.1804186.5642882-.5971207 1.02234-1.1418739 1.2551832l-.19.07c-.2500744.1048984-.4750325.2616874-.66.46-.3374817.3413925-.5429897.7913843-.58 1.27l-.01.21c-.0386301.592219-.3372569 1.1370148-.8157175 1.4881431-.4784606.3511284-1.0877394.4726182-1.6642825.3318569l-.18-.05c-.5625896-.1375487-1.1571803-.024467-1.63.31-.1428372.0977877-.2708218.2156682-.38.35l-.12.15c-.3772925.4558928-.9382332.7197867-1.53.7197867s-1.1527075-.2638939-1.53-.7197867l-.12-.15c-.11183-.1318127-.2394558-.2493628-.38-.35-.4728197-.334467-1.0674104-.4475487-1.63-.31l-.18.05c-.5765431.1407613-1.1858219.0192715-1.6642825-.3318569-.4784606-.3511283-.7770874-.8959241-.8157175-1.4881431l-.01-.21c-.0370103-.4786157-.2425183-.9286075-.58-1.27-.1849675-.1983126-.4099256-.3551016-.66-.46l-.19-.07c-.5447532-.2328432-.9614553-.690895-1.1418739-1.2551832-.1804187-.5642881-.1067492-1.1791254.2018739-1.6848168l.11-.19c.3999226-.6500848.3999226-1.4699152 0-2.12l-.11-.19c-.3086231-.5056914-.3822926-1.1205287-.2018739-1.6848168.1804186-.5642882.5971207-1.02234 1.1418739-1.2551832l.19-.07c.2128243-.0885425.4064129-.2176016.57-.38.3928241-.3438825.6336787-.8291865.67-1.35l.01-.21c.0386301-.592219.3372569-1.1370148.8157175-1.4881431.4784606-.3511284 1.0877394-.4726182 1.6642825-.3318569l.18.05c.741042.1813714 1.5207199-.0746422 2.01-.66l.12-.15c.3772925-.4558928.9382332-.7197867 1.53-.7197867s1.1527075.2638939 1.53.7197867l.12.15c.4892801.5853578 1.268958.8413714 2.01.66l.18-.05c.5765431-.1407613 1.1858219-.0192715 1.6642825.3318569.4784606.3511283.7770874.8959241.8157175 1.4881431l.01.21c.0363213.5208135.2771759 1.0061175.67 1.35.1635871.1623984.3571757.2914575.57.38l.19.07c.5447532.2328432.9614553.690895 1.1418739 1.2551832.1804187.5642881.1067492 1.1791254-.2018739 1.6848168l-.11.19c-.3999226.6500848-.3999226 1.4699152 0 2.12z" fill="#ffe7e8"/><path id="Shape" d="m53.59 28.56c-.3999226-.6500848-.3999226-1.4699152 0-2.12l.11-.19c.3086231-.5056914.3822926-1.1205287.2018739-1.6848168-.1804186-.5642882-.5971207-1.02234-1.1418739-1.2551832l-.19-.07c-.2128243-.0885425-.4064129-.2176016-.57-.38-.3928241-.3438825-.6336787-.8291865-.67-1.35l-.01-.21c-.0386301-.592219-.3372569-1.1370148-.8157175-1.4881431-.4784606-.3511284-1.0877394-.4726182-1.6642825-.3318569l-.18.05c-.741042.1813714-1.5207199-.0746422-2.01-.66l-.12-.15c-.3724927-.4497713-.9243023-.7124828-1.5082661-.7180719-.5839639-.0055891-1.1407007.2465126-1.5217339.6890719.009.011.021.018.03.029l.12.15c.4892801.5853578 1.268958.8413714 2.01.66l.18-.05c.5765431-.1407613 1.1858219-.0192715 1.6642825.3318569.4784606.3511283.7770874.8959241.8157175 1.4881431l.01.21c.0363213.5208135.2771759 1.0061175.67 1.35.1635871.1623984.3571757.2914575.57.38l.19.07c.5447532.2328432.9614553.690895 1.1418739 1.2551832.1804187.5642881.1067492 1.1791254-.2018739 1.6848168l-.11.19c-.3999226.6500848-.3999226 1.4699152 0 2.12l.11.19c.3086231.5056914.3822926 1.1205287.2018739 1.6848168-.1804186.5642882-.5971207 1.02234-1.1418739 1.2551832l-.19.07c-.2500744.1048984-.4750325.2616874-.66.46-.3374817.3413925-.5429897.7913843-.58 1.27l-.01.21c-.0386301.592219-.3372569 1.1370148-.8157175 1.4881431-.4784606.3511284-1.0877394.4726182-1.6642825.3318569l-.18-.05c-.5625896-.1375487-1.1571803-.024467-1.63.31-.1428372.0977877-.2708218.2156682-.38.35l-.12.15c-.009.011-.021.018-.03.029.3810332.4425593.93777.694661 1.5217339.6890719.5839638-.0055891 1.1357734-.2683006 1.5082661-.7180719l.12-.15c.1091782-.1343318.2371628-.2522123.38-.35.4728197-.334467 1.0674104-.4475487 1.63-.31l.18.05c.5765431.1407613 1.1858219.0192715 1.6642825-.3318569.4784606-.3511283.7770874-.8959241.8157175-1.4881431l.01-.21c.0370103-.4786157.2425183-.9286075.58-1.27.1849675-.1983126.4099256-.3551016.66-.46l.19-.07c.5447532-.2328432.9614553-.690895 1.1418739-1.2551832.1804187-.5642881.1067492-1.1791254-.2018739-1.6848168z" fill="#ffc9cc"/><path id="Shape" d="m54.36 39.9-.8-.21c-.254665-.0708032-.5270817-.0366095-.7563478.0949367-.2292661.1315461-.3962615.3494741-.4636522.6050633l-.22.8c-.1030744.3907338-.4311858.6810291-.8315675.735726-.4003817.054697-.794333-.1369558-.9984325-.485726l-3.26-5.66c.4728197-.334467 1.0674104-.4475487 1.63-.31l.18.05c.5765431.1407613 1.1858219.0192715 1.6642825-.3318569.4784606-.3511283.7770874-.8959241.8157175-1.4881431l.01-.21c.0370103-.4786157.2425183-.9286075.58-1.27l3.58 6.22c.1996978.3508811.1688144.7874258-.0782932 1.1066977-.2471077.3192719-.6619609.4586345-1.0517068.3533023z" fill="#ffe7e8"/><path id="Shape" d="m6.8 51.99c.062.01 3.053.009 3 0-3.2314757-.1077738-5.79640791-2.7567296-5.8-5.99v-36c0-3.3137085 2.6862915-6 6-6h-3c-3.3137085 0-6 2.6862915-6 6v36c.00359209 3.2332704 2.5685243 5.8822262 5.8 5.99z" fill="#fff"/><path id="Rectangle-path" d="m0 38h2v8h-2z" fill="#fff"/><circle id="Oval" cx="1" cy="42" fill="#ff414c" r="1"/><path id="Shape" d="m7 53h46c3.8641657-.0044086 6.9955914-3.1358343 7-7v-36c.0003871-1.88138246-.7565713-3.68372238-2.1001999-5.00063637-1.3436285-1.316914-3.1608047-2.03752886-5.0418001-1.99936363-.4545933-1.76068514-2.0395884-2.99318518-3.858-3h-8c-1.8184116.00681482-3.4034067 1.23931486-3.858 3h-30.142c-3.86416566.00440864-6.99559136 3.13583434-7 7v28c0 .5522847.44771525 1 1 1s1-.4477153 1-1v-28c.00330612-2.76005315 2.23994685-4.99669388 5-5h30v17.333c-.8529128.3097464-1.5225627.984764-1.8254901 1.8401224-.3029273.8553585-.207371 1.8013758.2604901 2.5788776.471.806.256 1.053.012 1.476-.4522482.7338564-.5688693 1.6261549-.3204166 2.4515911s.838231 1.5051116 1.6204166 1.8674089l-3.106 5.4c-.3992147.7004985-.3387688 1.5722074.1533081 2.2109021.4920768.6386947 1.3195437.9194589 2.0986919.7120979l.8-.212.218.793c.2074344.7819954.8655656 1.3619945 1.667434 1.4694795.8018683.1074849 1.5895122-.278718 1.995566-.9784795l2.626-4.552c1.0626835.8118616 2.5373165.8118616 3.6 0l2.625 4.556c.4071681.6957087 1.192196 1.0789759 1.9911842.9721383.7989882-.1068377 1.455739-.682894 1.6658158-1.4611383l.222-.8.8.21c.7797121.2073648 1.6076639-.0740719 2.0994823-.7136544s.5511766-1.5120431.1505177-2.2123456l-3.1-5.389c.7763348-.3631565 1.3621782-1.0385907 1.6119532-1.8584631.2497751-.8198724.1400342-1.7072171-.3019532-2.4415369-.471-.806-.256-1.053-.012-1.476.4767792-.7775522.5788522-1.7282171.2780097-2.5892627-.3008426-.8610456-.9727428-1.5412904-1.8300097-1.8527373v-17.334c2.7600532.00330612 4.9966939 2.23994685 5 5v36c-.0033061 2.7600532-2.2399468 4.9966939-5 5h-19.184c.1939027-.6477625.2564599-1.3277321.184-2-.0049599-4.4162219-3.5837781-7.9950401-8-8h-1.619c-1.383147-1.2162736-1.8554511-3.1690767-1.181-4.883 2.6958572-1.1868491 4.8193134-3.3828223 5.915-6.117 1.935217-.0538255 3.5541199-1.4858245 3.8437664-3.3999997.2896466-1.9141752-.8331108-3.7610329-2.6657664-4.3850003.681-2.49 1.708-8.38-2.778-11.071-5.236-3.144-18.042 1.566-20.615-3.591-.1987834-.39869392-.63733449-.61780756-1.07551222-.53735906-.43817772.0804485-.77029344.44105494-.81448778.88435906-.037.37-.716 7.717 3 11.4v2.826c-1.93248651.4934584-3.20617003 2.3351329-2.98588741 4.3174247.22028261 1.9822918 1.86721299 3.4994124 3.86088741 3.5565753 1.09568661 2.7341777 3.2191428 4.9301509 5.915 6.117.6744511 1.7139233.202147 3.6667264-1.181 4.883h-1.619c-4.41622192.0049599-7.99504012 3.5837781-8 8v.974c-1.25456809-.936398-1.99543933-2.4085092-2-3.974 0-.5522847-.44771525-1-1-1s-1 .4477153-1 1c.00440864 3.8641657 3.13583434 6.9955914 7 7zm34-51h8c1.1045695 0 2 .8954305 2 2v14.948c-.7097363-.4850855-1.5934711-.6423881-2.427-.432-.4002824.1561684-.8554378.0482532-1.143-.271-.5582322-.7828054-1.4594499-1.2486768-2.420907-1.2514527-.9614572-.0027759-1.8653499.4578838-2.428093 1.2374527-.2350786.2870349-.6120954.416707-.974.335-.881166-.2844644-1.8444891-.14331-2.607.382v-14.948c0-1.1045695.8954305-2 2-2zm-2.156 38.925-.217-.79c-.1349533-.51726-.4737248-.9577713-.939-1.221-.785-.448-1.313-.242-2.312.025l2.5-4.34c.5117364 1.4481963 2.0435455 2.2670116 3.532 1.888zm6.917-5.285c-.190357.2166684-.4639724.3420244-.7523711.3446966-.2883987.0026721-.5642899-.1175926-.7586289-.3306966-.7665362-1.0334731-2.0987501-1.4754113-3.331-1.105-.2865701.0691148-.5890342.0091903-.8276052-.1639661-.2385711-.1731564-.3892886-.442154-.4123948-.7360339.0008352-1.2999662-.8226441-2.4574947-2.051-2.883-.2803937-.1207798-.4934761-.3587686-.5826514-.6507552-.0891754-.2919866-.0454174-.6084167.1196514-.8652448l.1-.168c.5979394-.9621101.6029678-2.1789812.013-3.146-.2425507-.3002062-.3259064-.6987505-.224-1.071.0819272-.2726145.2761536-.4973934.534-.618 1.240389-.4137408 2.0811827-1.5694807 2.093-2.877.0172824-.2931534.161423-.564232.3947995-.7424818.2333766-.1782497.5328302-.245982.8202005-.1855182 1.2323941.3989368 2.581661-.0381837 3.346-1.084.190357-.2166684.4639724-.3420244.7523711-.3446966.2883987-.0026721.5642899.1175926.7586289.3306966.7566035 1.0471079 2.098564 1.4922794 3.331 1.105.284147-.0720261.585614-.0133464.822.16.30063.2305318.4627807.5985762.43.976.1091936 1.2024892.9038924 2.233376 2.039 2.645.2803937.1207798.4934761.3587686.5826514.6507552.0891754.2919866.0454174.6084167-.1196514.8652448l-.1.168c-.5983497.9623529-.6033786 2.1797365-.013 3.147.2422257.2999701.325564.698059.224 1.07-.27.837-.863.466-1.723 1.366-1.226 1.16-.562 2.337-1.323 2.89-.2913944.2084093-.6702711.2500858-1 .11-1.182155-.2903222-2.422704.160966-3.142 1.143zm8.857 3.294c-.08-.027.277.072-.786-.206-.5115691-.1437007-1.059382-.0765136-1.5210627.1865524-.4616808.2630659-.7987599.7000908-.9359373 1.2134476l-.218.816-2.565-4.452c1.4870369.3705862 3.0143197-.4391927 3.542-1.878l2.494 4.325zm-44.109-10.308c-.1612521-.4871424-.66505101-.7731758-1.166-.662-.75017141.1437178-1.51669512-.1523868-1.97543296-.7631008-.45873785-.610714-.52957623-1.4293827-.1825599-2.1098176.34701634-.6804348 1.05128476-1.1038053 1.81499286-1.0910816.55228475 0 1-.4477153 1-1v-2.319c.2231123.1013379.4514316.1907964.684.268.5246705.174522 1.091478-.1093295 1.266-.634.1745219-.5246705-.1093295-1.091478-.634-1.266-3.217-1.071-4.2-5.058-4.353-8.46 4.889 3.375 15.488-.153 19.522 2.266 4.222 2.534 1.605 9.721 1.578 9.793-.1155694.3073092-.0729267.6517712.1140922.9216214.187019.2698502.4945861.430707.8229078.4303786.7637081-.0127237 1.4679765.4106468 1.8149929 1.0910816.3470163.6804349.2761779 1.4991036-.1825599 2.1098176-.4587379.610714-1.2252616.9068186-1.975433.7631008-.500949-.1111758-1.0047479.1748576-1.166.662-1.1577006 3.7347904-4.5815035 6.3049611-8.491 6.374-3.9094965-.0690389-7.3332994-2.6392096-8.491-6.374zm6.47 8.17c1.3336058.2719968 2.7083942.2719968 4.042 0-.3763215 2.0812814.3574765 4.2084242 1.937 5.615-.1997614 2.0362778-1.9119472 3.5887153-3.958 3.5887153s-3.7582386-1.5524375-3.958-3.5887153c1.578178-1.4057659 2.3118474-3.5310209 1.937-5.611zm-10.979 13.204v-1c.00330738-3.3123376 2.68766243-5.9966926 6-6h1.083c.4856527 2.8893814 2.9870881 5.0054594 5.917 5.0054594s5.4313473-2.116078 5.917-5.0054594h1.083c3.3123376.0033074 5.9966926 2.6876624 6 6v1c0 .5522847-.4477153 1-1 1h-3v-2c0-.5522847-.4477153-1-1-1s-1 .4477153-1 1v2h-14v-2c0-.5522847-.4477153-1-1-1s-1 .4477153-1 1v2h-3c-.55228475 0-1-.4477153-1-1z" fill="#ff414c"/></g></g></svg>