<svg height="512" viewBox="0 0 60 44" width="512" xmlns="http://www.w3.org/2000/svg"><g id="Page-1" fill="none" fill-rule="evenodd"><g id="049---Volume" fill-rule="nonzero"><path id="Shape" d="m25 10v24h-16c-2.209139 0-4-1.790861-4-4v-16c0-2.209139 1.790861-4 4-4z" fill="#ffe7e8"/><path id="Rectangle-path" d="m22 10h3v24h-3z" fill="#ffc9cc"/><path id="Shape" d="m5 15v14h-2c-1.10320187-.0032948-1.9967052-.8967981-2-2v-10c.0032948-1.1032019.89679813-1.9967052 2-2z" fill="#ffe7e8"/><path id="Shape" d="m38 4.06v35.88c-.0018263.7612046-.4356029 1.4553782-1.1189747 1.7906972-.6833717.3353191-1.4978456.2536412-2.1010253-.2106972l-9.78-7.52v-24l9.78-7.52c.6031797-.46433835 1.4176536-.54601628 2.1010253-.21069722.6833718.33531907 1.1171484 1.02949259 1.1189747 1.79069722z" fill="#ffe0e2"/><path id="Shape" d="m34.78 2.48-.313.241c.342397.36172738.5331441.84092134.533 1.339v35.88c.0001441.4980787-.190603.9772726-.533 1.339l.313.241c.6031797.4643384 1.4176536.5460163 2.1010253.2106972.6833718-.335319 1.1171484-1.0294926 1.1189747-1.7906972v-35.88c-.0018263-.76120463-.4356029-1.45537815-1.1189747-1.79069722-.6833717-.33531906-1.4978456-.25364113-2.1010253.21069722z" fill="#ff9ea1"/><path id="Shape" d="m6 15h2v-1c0-2.209139 1.790861-4 4-4h-3c-2.209139 0-4 1.790861-4 4v1h-2c-1.10320187.0032948-1.9967052.8967981-2 2v10c.0032948 1.1032019.89679813 1.9967052 2 2h2v1c0 2.209139 1.790861 4 4 4h3c-2.209139 0-4-1.790861-4-4v-1h-2c-1.10320187-.0032948-1.9967052-.8967981-2-2v-10c.0032948-1.1032019.89679813-1.9967052 2-2z" fill="#fff"/><path id="Rectangle-path" d="m9 9h8v2h-8z" fill="#fff"/><g fill="#ff414c"><circle id="Oval" cx="13" cy="10" r="1"/><path id="Shape" d="m9 26c-.55228475 0-1 .4477153-1 1v2c0 1.1045695.8954305 2 2 2h2c.5522847 0 1-.4477153 1-1s-.4477153-1-1-1h-2v-2c0-.5522847-.44771525-1-1-1z"/><path id="Shape" d="m3 30h1c.00330612 2.7600532 2.23994685 4.9966939 5 5h15.66l9.511 7.316c.9059152.6967777 2.1290352.8182992 3.1543419.3133956 1.0253068-.5049036 1.6746681-1.5485126 1.6746581-2.6913956v-35.876c.00001-1.142883-.6493513-2.186492-1.6746581-2.69139559-1.0253067-.50490359-2.2484267-.38338208-3.1543419.31339559l-9.511 7.316h-7.66c-.5522847 0-1 .44771525-1 1 0 .5522847.4477153 1 1 1h7v13c0 .5522847.4477153 1 1 1s1-.4477153 1-1v-13.508l9.39-7.222c.3018755-.2323874.7095675-.27306524 1.051408-.10490519s.5584391.51594231.558592.89690519v35.876c-.0001529.3809629-.2167515.7287451-.558592.8969052-.3418405.16816-.7495325.1274822-1.051408-.1049052l-9.39-7.222v-2.508c0-.5522847-.4477153-1-1-1s-1 .4477153-1 1v2h-15c-1.65685425 0-3-1.3431458-3-3v-16c0-1.6568542 1.34314575-3 3-3 .55228475 0 1-.4477153 1-1 0-.55228475-.44771525-1-1-1-2.76005315.00330612-4.99669388 2.2399468-5 5h-1c-1.65685425 0-3 1.3431458-3 3v10c0 1.6568542 1.34314575 3 3 3zm-1-13c0-.5522847.44771525-1 1-1h1v12h-1c-.55228475 0-1-.4477153-1-1z"/><path id="Shape" d="m15 30c0 .5522847.4477153 1 1 1h1c.5522847 0 1-.4477153 1-1s-.4477153-1-1-1h-1c-.5522847 0-1 .4477153-1 1z"/><path id="Shape" d="m21 15c.5522847 0 1-.4477153 1-1s-.4477153-1-1-1h-2c-.5522847 0-1 .4477153-1 1s.4477153 1 1 1z"/><path id="Shape" d="m10 14c0 .5522847.4477153 1 1 1h4c.5522847 0 1-.4477153 1-1s-.4477153-1-1-1h-4c-.5522847 0-1 .4477153-1 1z"/><path id="Shape" d="m34 11c.5522847 0 1-.4477153 1-1v-2c0-.55228475-.4477153-1-1-1s-1 .44771525-1 1v2c0 .5522847.4477153 1 1 1z"/><path id="Shape" d="m33 24c0 .5522847.4477153 1 1 1s1-.4477153 1-1v-10c0-.5522847-.4477153-1-1-1s-1 .4477153-1 1z"/><path id="Shape" d="m50.108 2.663c.4116077-.00043898.7809015-.25304079.9305244-.63649104.149623-.38345025.0490077-.81941139-.2535244-1.09850896-.253-.235-.512-.463-.774-.687-.4212323-.33407529-1.0312217-.27530784-1.3809275.13304098-.3497059.40834881-.3139582 1.02011905.0809275 1.38495902.2426667.21.4833333.423.722.639.1832785.17069584.4245446.26541512.675.265z"/><path id="Shape" d="m58.993 20.133h-.024c-.2652417.0062894-.5171121.1177272-.7001637.3097814-.1830517.1920543-.2822784.4489805-.2758363.7142186 0 .194.007.389.007.583 0 .4493333-.0116667.8956667-.035 1.339-.0141655.2649785.0775674.5247225.2549989.7220352.1774314.1973128.4260112.3160139.6910011.3299648h.054c.532232.000748.9717922-.4155154 1-.947.0233333-.478.035-.9593333.035-1.444 0-.21-.0023333-.4206667-.007-.632-.0135667-.5424976-.4573329-.9751696-1-.975z"/><path id="Shape" d="m57.044 31.883c.2495564.0906832.5249323.078394.7654189-.0341582.2404866-.1125523.4263378-.316126.5165811-.5658418.235-.644.448-1.308.636-1.976.0966368-.344162.0022116-.7137336-.2476707-.9693603-.2498822-.2556267-.6172127-.3584258-.9634818-.2696348-.3462691.0887909-.618807.3556663-.7148475.6999951-.174.618-.371 1.234-.589 1.83-.0917644.2495403-.0803756.5253511.0316492.7664766s.3154621.4277122.5653508.5185234z"/><path id="Shape" d="m55.275 35.468c-.4640673-.2974116-1.0812901-.1632328-1.38.3-.348.544-.716 1.077-1.1 1.584-.2143594.2858125-.2599564.6642734-.1196152.9928203.1403411.3285469.4452994.5572656.8.6.3547005.0427344.7052558-.1070078.9196152-.3928203.409-.547.8-1.12 1.179-1.705.2969202-.4636041.1632695-1.0800063-.299-1.379z"/><path id="Shape" d="m56.006 7.326c-.351-.586-.731-1.171-1.129-1.738-.3175637-.45204507-.9414549-.56106373-1.3935-.2435s-.5610637.94145493-.2435 1.3935c.37.528.724 1.071 1.049 1.616.1836345.30671251.516949.49215871.8743871.48648281.357438-.0056759.6846964-.20161159.8585-.514.1738035-.31238841.1677474-.6937703-.0158871-1.00048281z"/><path id="Shape" d="m58.2 16.2c.0825722-.0001721.1648259-.010244.245-.03.2572913-.0646611.4783446-.2289097.6145052-.4565941.1361605-.2276844.176268-.5001428.1114948-.7574059-.169-.671-.363-1.341-.577-1.989-.1120027-.3394023-.3965665-.5932703-.746499-.6659742-.3499324-.0727039-.7120703.0468016-.95.3135-.2379296.2666984-.3155038.6400719-.203501.9794742.2.6.379 1.225.536 1.85.1118468.444534.5116114.756103.97.756z"/><path id="Shape" d="m48.85 41.6c-.242.21-.487.417-.737.617-.2805578.2232937-.4200877.5797093-.365694.9341301.0543936.3544208.294384.6525907.6289911.7814739.3346071.1288831.7126079.0687496.9907029-.157604.27-.2173333.5366667-.4396667.8-.667.4164227-.3636795.4591795-.9960773.0955-1.4125s-.9960773-.4591795-1.4125-.0955z"/><path id="Shape" d="m46.156 6.29c-.3893883.3883855-.3920688 1.01831468-.006 1.41 3.8390955 3.7976997 5.9522721 9.003982 5.8460486 14.4030462-.1062235 5.3990641-2.4225467 10.5181986-6.4080486 14.1619538-.2758174.2398527-.3987963.6110822-.3207295.9681678.0780669.3570856.3447402.6431284.6954849.7460007.3507448.1028722.7296724.006182.9882446-.2521685 4.3792134-4.0120193 6.9236635-9.6428968 7.0406215-15.5809209.1169579-5.938024-2.2037883-11.6647286-6.4216215-15.8460791-.3877332-.39315737-1.0207449-.39763412-1.414-.01z"/><path id="Shape" d="m43.367 31.8c.4418278.3313708 1.0686292.2418278 1.4-.2 4.3080863-5.6772418 4.3080863-13.5287582 0-19.206-.2154312-.2858125-.5669769-.4349829-.9222133-.3913203-.3552365.0436626-.6601947.2735249-.8.603s-.0932179.7085078.1222133.9943203c3.7721474 4.9625456 3.7721474 11.8314544 0 16.794-.1610288.2125687-.2304828.4806505-.192927.7446681.0375559.2640176.1790103.5020982.392927.6613319z"/></g></g></g></svg>