<svg height="512" viewBox="0 0 56 60" width="512" xmlns="http://www.w3.org/2000/svg" xmlns:xlink="http://www.w3.org/1999/xlink"><linearGradient id="linearGradient-1" x1="-11.388%" x2="111.388%" y1="10.617%" y2="89.381%"><stop offset="0" stop-color="#f6d8da"/><stop offset=".172" stop-color="#f6d8da"/><stop offset=".2" stop-color="#f6d8da"/><stop offset=".2" stop-color="#dae2f2"/><stop offset=".201" stop-color="#ebeaf2"/><stop offset=".201" stop-color="#f6eff2"/><stop offset=".202" stop-color="#fdf2f2"/><stop offset=".205" stop-color="#fff3f2"/><stop offset=".252" stop-color="#fff3f2"/><stop offset=".26" stop-color="#fff3f2"/><stop offset=".26" stop-color="#f6d8da"/><stop offset=".397" stop-color="#f6d8da"/><stop offset=".42" stop-color="#f6d8da"/><stop offset=".42" stop-color="#dae2f2"/><stop offset=".421" stop-color="#ebeaf2"/><stop offset=".421" stop-color="#f6eff2"/><stop offset=".422" stop-color="#fdf2f2"/><stop offset=".425" stop-color="#fff3f2"/><stop offset=".489" stop-color="#fff3f2"/><stop offset=".5" stop-color="#fff3f2"/><stop offset=".5" stop-color="#f8f0f2"/><stop offset=".5" stop-color="#e7e8f2"/><stop offset=".5" stop-color="#dce3f2"/><stop offset=".5" stop-color="#f3d6d8"/><stop offset=".501" stop-color="#f6d8da"/><stop offset=".706" stop-color="#f6d8da"/><stop offset=".74" stop-color="#f6d8da"/><stop offset=".741" stop-color="#fff3f2"/><stop offset=".835" stop-color="#fff3f2"/><stop offset=".85" stop-color="#fff3f2"/><stop offset=".851" stop-color="#f6d8da"/></linearGradient><g id="Page-1" fill="none" fill-rule="evenodd"><g id="072---Mobile-Alert" fill-rule="nonzero"><path id="Shape" d="m35 4v47c0 1.6568542-1.3431458 3-3 3h-28c-1.65685425 0-3-1.3431458-3-3v-47c0-1.65685425 1.34314575-3 3-3h4l2.86 3.05c.5663757.60708315 1.3597411.95123705 2.19.95h9.9c.8302589.00123705 1.6236243-.34291685 2.19-.95l2.86-3.05h4c1.6568542 0 3 1.34314575 3 3z" fill="url(#linearGradient-1)"/><path id="Shape" d="m32 1h-3c1.6568542 0 3 1.34314575 3 3v47c0 1.6568542-1.3431458 3-3 3h3c1.6568542 0 3-1.3431458 3-3v-47c0-1.65685425-1.3431458-3-3-3z" fill="#ffe0e2"/><path id="Shape" d="m35 51v5c0 1.6568542-1.3431458 3-3 3h-28c-1.65685425 0-3-1.3431458-3-3v-5c0 1.6568542 1.34314575 3 3 3h28c1.6568542 0 3-1.3431458 3-3z" fill="#ffe0e2"/><path id="Shape" d="m32 54v2c0 1.6568542-1.3431458 3-3 3h3c1.6568542 0 3-1.3431458 3-3v-5c0 1.6568542-1.3431458 3-3 3z" fill="#ff9ea1"/><path id="Shape" d="m28 1-2.86 3.05c-.5663757.60708315-1.3597411.95123705-2.19.95h-9.9c-.8302589.00123705-1.6236243-.34291685-2.19-.95l-2.86-3.05z" fill="#ffe0e2"/><path id="Shape" d="m25 1-2.86 3.05c-.5663757.60708315-1.3597411.95123705-2.19.95000332l3-.00000332c.8302589.00123705 1.6236243-.34291685 2.19-.95l2.86-3.05z" fill="#ff9ea1"/><path id="Shape" d="m29.626 43.1c-3.182 2.563-7.541 2.957-10.216 2.916-.3917561-.0064893-.743152-.2425075-.8973371-.6027046s-.0823905-.7773652.1833371-1.0652954c1.0938944-1.3279413 1.8470339-2.9028747 2.194-4.588.1661215-.7044162-.0682116-1.4431417-.61-1.923-3.2639911-2.6632957-5.1942986-6.6251789-5.28-10.837 0-8.84 8.95-16 20-16s20 7.16 20 16-8.95 16-20 16c-1.2666878-.0001811-2.531575-.0954488-3.784-.285-.5605287-.099982-1.137297.0396758-1.59.385z" fill="#ffe7e8"/><path id="Shape" d="m28.216 42.715c-.5599644-.1011102-1.1366743.0370825-1.59.381-2.227474 1.6478502-4.8821127 2.6198638-7.647 2.8.1330237.0702865.2805867.1086323.431.112 2.674.041 7.034-.353 10.216-2.916.0934976-.0722049.1940005-.1348516.3-.187-.577-.043-1.149-.105-1.71-.19z" fill="#ffc9cc"/><path id="Shape" d="m35 11c-.506 0-1 .031-1.5.061 10.346.615 18.5 7.504 18.5 15.939s-8.177 15.343-18.544 15.941c.511.032 1.023.059 1.544.059 11.05 0 20-7.16 20-16s-8.95-16-20-16z" fill="#ffc9cc"/><path id="Shape" d="m36.064 30h-2.128c-.5271436.0011844-.9646826-.4070395-1-.933l-.8-11.934c-.0368625-.553076.1574626-1.0966458.5366048-1.5010009.3791422-.4043552.9090935-.6332262 1.4633952-.6319991h1.724c.5543017-.0012271 1.084253.2276439 1.4633952.6319991.3791422.4043551.5734673.9479249.5366048 1.5010009l-.8 11.934c-.0352146.5244225-.4703974.9320786-.996.933z" fill="#ffc9cc"/><rect id="Rectangle-path" fill="#ffc9cc" height="4" rx="1" width="4" x="33" y="34"/><path id="Shape" d="m7 1h-3c-1.65685425 0-3 1.34314575-3 3v52c0 1.6568542 1.34314575 3 3 3h3c-1.65685425 0-3-1.3431458-3-3v-52c0-1.65685425 1.34314575-3 3-3z" fill="#fff"/><path id="Rectangle-path" d="m0 33h2v8h-2z" fill="#fff"/><g fill="#ff414c"><circle id="Oval" cx="1" cy="37" r="1"/><path id="Shape" d="m32 0h-28c-2.209139 0-4 1.790861-4 4v29c0 .5522847.44771525 1 1 1s1-.4477153 1-1v-29c0-1.1045695.8954305-2 2-2h3.567l2.564 2.735c.7571716.80580401 1.8132755 1.26348524 2.919 1.265h9.9c1.1057245-.00151476 2.1618284-.45919599 2.919-1.265l2.564-2.735h3.567c1.1045695 0 2 .8954305 2 2v6.041c-11.114.427-20 7.859-20 16.959.0838817 4.5006815 2.1401083 8.7374442 5.624 11.588.2615723.238271.373356.5996537.292.944-.3096388 1.5271159-.9887768 2.955091-1.978 4.159-.5219683.5934427-.6490323 1.4371476-.325 2.158.315386.7052701 1.0144311 1.1606079 1.787 1.164h.379c3.09 0 7.288-.57 10.479-3.142.2366764-.1647095.5300254-.2264102.813-.171 1.3003222.1981087 2.6136741.2983901 3.929.3 11.58 0 21-7.626 21-17 0-9.1-8.886-16.532-20-16.959v-6.041c0-2.209139-1.790861-4-4-4zm-7.59 3.368c-.378896.40269492-.907076.63133176-1.46.632h-9.9c-.5527743.00000995-1.0809024-.22876112-1.459-.632l-1.282-1.368h15.383zm29.59 23.632c0 8.271-8.523 15-19 15-1.2164437-.0003211-2.4311615-.0915754-3.634-.273-.8363587-.1438969-1.6947183.0697861-2.366.589-3.011 2.426-7.285 2.73-9.545 2.68 1.2018051-1.4505434 2.0299435-3.1734284 2.412-5.018.2496596-1.0644461-.1084028-2.1797853-.931-2.9-3.04308-2.4733722-4.8475064-6.1575312-4.936-10.078 0-8.271 8.523-15 19-15s19 6.729 19 15z"/><path id="Shape" d="m0 56c0 2.209139 1.790861 4 4 4h28c2.209139 0 4-1.790861 4-4v-9c0-.5522847-.4477153-1-1-1s-1 .4477153-1 1v4c0 1.1045695-.8954305 2-2 2h-28c-1.1045695 0-2-.8954305-2-2v-10c0-.5522847-.44771525-1-1-1s-1 .4477153-1 1zm4-1h28c.7042532-.0041446 1.3946535-.1960759 2-.556v1.556c0 1.1045695-.8954305 2-2 2h-28c-1.1045695 0-2-.8954305-2-2v-1.556c.60534654.3599241 1.29574677.5518554 2 .556z"/><path id="Shape" d="m43.512 17.956c4.063 2.07 6.488 5.451 6.488 9.044 0 .5522847.4477153 1 1 1s1-.4477153 1-1c0-4.36-2.833-8.407-7.58-10.825-.3195472-.1751414-.7090678-.1625992-1.016686.0327363-.3076182.1953356-.4846313.5425386-.4620211.9062332.0226101.3636945.2412638.6862997.5707071.8420305z"/><path id="Shape" d="m6 8c0-.55228475-.44771525-1-1-1s-1 .44771525-1 1v2c0 .5522847.44771525 1 1 1s1-.4477153 1-1z"/><path id="Shape" d="m5 13c-.55228475 0-1 .4477153-1 1v16c0 .5522847.44771525 1 1 1s1-.4477153 1-1v-16c0-.5522847-.44771525-1-1-1z"/><path id="Shape" d="m31.947 14.95c-.5655438.6071797-.855054 1.4210652-.8 2.249l.795 11.933c.0696282 1.0527109.9449915 1.8703002 2 1.868h2.128c1.0546478.0023344 1.9298683-.814684 2-1.867l.785-11.933c.0553553-.8284819-.2351345-1.6428537-.8023244-2.2492712-.5671898-.6064175-1.3603464-.9506386-2.1906756-.9507288h-1.724c-.8299597.0016024-1.6225538.3452649-2.191.95zm4.117 15.05v-1zm.528-13.684c.1902826.2015231.2874771.4735227.268.75l-.796 11.934h-2.128l-.8-11.934c-.0182865-.2764545.0789408-.5481056.2684957-.7501711.1895548-.2020654.4544463-.316433.7315043-.3158289h1.724c.2775302-.0020412.5431471.112624.732.316z"/><path id="Shape" d="m36 33h-2c-1.1045695 0-2 .8954305-2 2v2c0 1.1045695.8954305 2 2 2h2c1.1045695 0 2-.8954305 2-2v-2c0-1.1045695-.8954305-2-2-2zm-2 4v-2h2v2z"/></g></g></g></svg>