<svg height="512" viewBox="0 0 60 60" width="512" xmlns="http://www.w3.org/2000/svg"><g id="Page-1" fill="none" fill-rule="evenodd"><g id="078---User" fill-rule="nonzero" transform="translate(0 -1)"><circle id="Oval" cx="30" cy="31" fill="#ffe7e8" r="29"/><path id="Shape" d="m30 2c-.5033333 0-1.0033333.01266667-1.5.038 15.4192225.79012792 27.5158989 13.5225465 27.5158989 28.962s-12.0966764 28.1718721-27.5158989 28.962c.4973333.0253333.9973333.038 1.5.038 16.0162576-.0000002 28.9999996-12.9837424 28.9999996-29s-12.983742-28.99999976-28.9999996-29z" fill="#ffc9cc"/><circle id="Oval" cx="30" cy="31" fill="#ffe0e2" r="25"/><path id="Shape" d="m30 6c-.5 0-1 .019-1.5.049 13.1671239.83401357 23.4196519 11.7564891 23.4196519 24.95s-10.252528 24.1159864-23.4196519 24.95c.5.03 1 .049 1.5.049 13.7193264-.1227131 24.7763954-11.2791248 24.7763954-24.999s-11.057069-24.87628693-24.7763954-24.999z" fill="#ff9ea1"/><path id="Shape" d="m43 29c0 1.6568542-1.3431458 3-3 3-.1882886.0003363-.3760566-.0197817-.56-.06-.9467521 2.9442877-3.1687681 5.3058682-6.05 6.43-2.181952.8399727-4.598048.8399727-6.78 0-2.8812319-1.1241318-5.1032479-3.4857123-6.05-6.43-.1839434.0402183-.3717114.0603363-.56.06-1.6568542 0-3-1.3431458-3-3s1.3431458-3 3-3v-4.15c-3.76-3.28-3-10.85-3-10.85 3 6 16 1 21 4s2 11 2 11c1.6568542 0 3 1.3431458 3 3z" fill="#ffe7e8"/><path id="Shape" d="m23.884 14.12c-3.091-.133-5.729-.811-6.884-3.12-.0654229.8189698-.0804512 1.6411864-.045 2.462 2.2521274.6298106 4.5985804.8526373 6.929.658z" fill="#ffc9cc"/><path id="Shape" d="m40 26s3-8-2-11c-1.745-1.047-4.465-1.119-7.393-1.025 1.5252308-.0145466 3.0317026.3369521 4.393 1.025 5 3 2 11 2 11 1.6568542 0 3 1.3431458 3 3s-1.3431458 3-3 3c-.1882886.0003363-.3760566-.0197817-.56-.06-1.1431821 3.6140712-4.2052794 6.2897426-7.94 6.938.4960007.0801566.9975652.1209505 1.5.122 4.3415694-.0664666 8.1492936-2.9141925 9.44-7.06.1839434.0402183.3717114.0603363.56.06 1.6568542 0 3-1.3431458 3-3s-1.3431458-3-3-3z" fill="#ffc9cc"/><path id="Shape" d="m22 23c-.7369486-.2455387-1.4170676-.6366072-2-1.15" fill="#ffe7e8"/><path id="Shape" d="m35 45c0 2.7614237-2.2385763 5-5 5s-5-2.2385763-5-5c2.69-2.02 2.22-4.93 1.61-6.63 2.181952.8399727 4.598048.8399727 6.78 0-.61 1.7-1.08 4.61 1.61 6.63z" fill="#ffe7e8"/><path id="Shape" d="m44.93 51.05c-8.8592661 6.5998836-21.0007339 6.5998836-29.86 0 .4684146-3.4678572 3.4306529-6.0539382 6.93-6.05h3c0 2.7614237 2.2385763 5 5 5s5-2.2385763 5-5h3c3.4993471-.0039382 6.4615854 2.5821428 6.93 6.05z" fill="#ffe7e8"/><path id="Shape" d="m38 45h-3c3.4993471-.0039382 6.4615854 2.5821428 6.93 6.05-3.9013551 2.9094338-8.5712362 4.6090898-13.43 4.888.5.03 1 .062 1.5.062 5.3811044.0085129 10.6198388-1.728375 14.93-4.95-.4684146-3.4678572-3.4306529-6.0539382-6.93-6.05z" fill="#ffc9cc"/><path id="Shape" d="m30 60c.479 0 .951-.022 1.422-.044-15.4426705-.8134458-27.53040144-13.6009986-27.47434352-29.0649769.05605793-15.4639783 12.23618142-28.16355861 27.68434352-28.8650231-15.649-.833-30.632 11.359-30.632 28.974 0 16.0162577 12.9837423 29 29 29z" fill="#fff"/><path id="Shape" d="m3.079 38.624-1.925.544-.514-2c-.129-.681-.216-1.368-.325-2.047l-.155-1.021-.06-1.034-.1-2.066h2l.1 1.929.05.965.147.954c.1.635.182 1.275.3 1.907z" fill="#fff"/><g fill="#ff414c"><path id="Shape" d="m1.324 35.989c-.55228473.0027614-1.00223852-.4427153-1.00499994-.995-.00276143-.5522847.44271521-1.0022385.99499994-1.005h.01c.55228475 0 1 .4477153 1 1s-.44771525 1-1 1z"/><path id="Shape" d="m1 32c.55228475 0 1-.4477153 1-1-.03703445-13.0419552 8.9105865-24.39266116 21.6006558-27.40199811s25.7817291 3.11494978 31.6048746 14.78478031c5.8231455 11.6698305 2.8447432 25.8129406-7.1902289 34.1432048-10.0349722 8.3302642-24.4846519 8.654611-34.8833015.783013-2.4153064-1.8222826-4.52302272-4.0198039-6.243-6.509-1.68838228-2.5090098-2.97391975-5.2666733-3.81-8.173-.15022145-.5315741-.70292593-.8407215-1.2345-.6905s-.84072145.7029259-.6905 1.2345c.89592027 3.115382 2.27429228 6.0712055 4.085 8.76 1.84267172 2.6644377 4.09948786 5.0171306 6.685 6.969 11.1064849 8.3774747 26.5173797 8.0119513 37.2141964-.8826652s13.8676867-23.9802012 7.6570103-36.4286384c-6.2106763-12.44843726-20.1703007-18.98741046-33.7096718-15.79029883-13.53937097 3.19711163-23.0993987 15.28988443-23.0855349 29.20160243 0 .2652165.10535684.5195704.29289322.7071068s.44189029.2928932.70710678.2928932z"/><path id="Shape" d="m7.489 20.084c-.50589368-.2214235-1.0955042.009138-1.317.515-4.84931166 11.1011916-1.38169453 24.080485 8.358 31.284.017.011.03.023.047.033 9.1647618 6.7786263 21.6812382 6.7786263 30.846 0 .017-.01.03-.022.047-.033 10.6231909-7.8704177 13.6464056-22.4609978 7.0251257-33.9045249-6.6212799-11.44352708-20.7774719-16.09401962-32.8951257-10.8064751-.3515292.12617922-.603445.43773808-.653235.80789332-.04979.37015525.1108452.73720681.4165381.95178968s.7054884.24092888 1.0366969.068317c3.0261195-1.32694271 6.2957436-2.0081144 9.6-2 10.0658659-.00565531 19.0644381 6.2741152 22.5316361 15.723995 3.467198 9.4498797.6653283 20.0592786-7.0156361 26.565005-1.1468519-3.1658148-4.1488738-5.2783339-7.516-5.289h-2.619c-1.3827118-1.2161092-1.8549786-3.1683587-1.181-4.882 2.6958655-1.1876747 4.8194733-3.3837924 5.916-6.118 1.9328738-.0568229 3.5483473-1.4881956 3.8374888-3.4001651.2891414-1.9119694-.8308486-3.7570181-2.6604888-4.3828349.681-2.491 1.708-8.381-2.778-11.072-2.359-1.414-5.954-1.258-9.759-1.1-4.624.2-9.412.406-10.861-2.494-.1987834-.3986939-.6373345-.61780756-1.0755122-.5373591-.4381777.0804485-.7702935.441055-.8144878.8843591-.037.37-.716 7.717 3 11.4v2.827c-1.9347997.4923775-3.2102843 2.3360189-2.9888158 4.3201653.2214685 1.9841465 1.8720687 3.5011811 3.8678158 3.5548347 1.0962882 2.7341264 3.2200137 4.9300068 5.916 6.117.6741416 1.7139446.2018815 3.666566-1.181 4.883h-2.619c-3.3671262.0106661-6.3691481 2.1231852-7.516 5.289-8.08738515-6.8417153-10.72376219-18.181308-6.484-27.889.22124771-.504535-.00724499-1.092982-.511-1.316zm14.02 11.542c-.1352616-.408984-.5172295-.6853869-.948-.686-.0737167-.000085-.147199.0083034-.219.025-.1124324.0237866-.2270802.0355195-.342.035-1.1045695 0-2-.8954305-2-2s.8954305-2 2-2c.5522847 0 1-.4477153 1-1v-2.318c.2233959.1000788.4516844.1888576.684.266.3394023.1128959.7132522.0361471.9807241-.201336.2674719-.237483.3879305-.599621.3160001-.95-.0719305-.350379-.3253219-.6357681-.6647242-.748664-.5903535-.1966145-1.1370734-.5056302-1.61-.91-.0306924-.0316016-.0641601-.0603838-.1-.086-2.012-1.809-2.539-5.154-2.644-7.465 2.623 1.808 6.8 1.63 10.879 1.454 3.345-.143 6.8-.294 8.643.812 4.222 2.534 1.605 9.72 1.578 9.793-.1164711.3077054-.0741326.6530138.1132267.9234663.1873593.2704526.4957638.4314405.8247733.4305337 1.1045695 0 2 .8954305 2 2s-.8954305 2-2 2c-.1149198.0005195-.2295676-.0112134-.342-.035-.500997-.1118544-1.0053152.1737964-1.167.661-1.1579689 3.7346013-4.5816101 6.3046506-8.491 6.374-3.9093899-.0693494-7.3330311-2.6393987-8.491-6.374zm6.469 8.17c1.3342795.2719944 2.7097205.2719944 4.044 0-.3767663 2.0811175.356675 4.2083247 1.936 5.615-.1997614 2.0362778-1.9119472 3.5887153-3.958 3.5887153s-3.7582386-1.5524375-3.958-3.5887153c1.5779792-1.4058655 2.311292-3.5311846 1.936-5.611zm-5.978 6.204h2.083c.4856527 2.8893814 2.9870881 5.0054594 5.917 5.0054594s5.4313473-2.116078 5.917-5.0054594h2.083c2.7684818.0117861 5.1687074 1.9180786 5.807 4.612-8.2749564 5.8507-19.3390436 5.8507-27.614 0 .6382926-2.6939214 3.0385182-4.6002139 5.807-4.612z"/><path id="Shape" d="m11.572 15.641c.6115454-.7309245 1.2649763-1.4257583 1.957-2.081.401511-.3796958.4191957-1.012989.0395-1.4145-.3796958-.401511-1.012989-.4191958-1.4145-.0395-.7489417.7091305-1.4558127 1.4614123-2.117 2.253-.2324007.2738262-.30010947.6512502-.17738513.9887848s.41703093.5833334.77103173.6439496c.3540007.0606163.71332-.0732608.9413534-.3507344z"/></g></g></g></svg>