<svg height="512" viewBox="0 0 60 60" width="512" xmlns="http://www.w3.org/2000/svg"><g id="Page-1" fill="none" fill-rule="evenodd"><g id="080---Headset" fill-rule="nonzero"><path id="Shape" d="m8 31v16c-3.87 0-7-3.58-7-8s3.13-8 7-8z" fill="#ffe7e8"/><path id="Shape" d="m18 31v16c-.0032948 1.1032019-.8967981 1.9967052-2 2h-2v-20h2c1.1032019.0032948 1.9967052.8967981 2 2z" fill="#ffe0e2"/><path id="Shape" d="m14 29v20h-4c-1.10320187-.0032948-1.9967052-.8967981-2-2v-16c.0032948-1.1032019.89679813-1.9967052 2-2z" fill="#ffe7e8"/><path id="Shape" d="m59 39c0 4.42-3.13 8-7 8v-16c3.87 0 7 3.58 7 8z" fill="#ffe7e8"/><path id="Shape" d="m52 31v.779c2.5459233 1.5018094 4.0771963 4.2661399 4 7.221.0769811 2.9548074-1.4542354 5.7190361-4 7.221v.779c3.87 0 7-3.58 7-8s-3.13-8-7-8z" fill="#ffc9cc"/><path id="Shape" d="m52 31v16c-.0032948 1.1032019-.8967981 1.9967052-2 2h-4v-20h4c1.1032019.0032948 1.9967052.8967981 2 2z" fill="#ffe7e8"/><path id="Shape" d="m50 29h-3c1.1032019.0032948 1.9967052.8967981 2 2v16c-.0032948 1.1032019-.8967981 1.9967052-2 2h3c1.1032019-.0032948 1.9967052-.8967981 2-2v-16c-.0032948-1.1032019-.8967981-1.9967052-2-2z" fill="#ffc9cc"/><path id="Shape" d="m46 29v20h-2c-1.1032019-.0032948-1.9967052-.8967981-2-2v-16c.0032948-1.1032019.8967981-1.9967052 2-2z" fill="#ffe0e2"/><path id="Shape" d="m46.825 14.823c-.8865312.0030281-1.7288199-.3869882-2.3-1.065-3.6101014-4.28464138-8.9272343-6.757488-14.53-6.757488s-10.9198986 2.47284662-14.53 6.757488c-.6911303.81921-1.7668043 1.2074776-2.8218261 1.0185463-1.0550219-.1889314-1.9291085-.9263587-2.293-1.9345-.36389157-1.0081414-.1623042-2.1338363.5288261-2.9530463 4.7501341-5.63596767 11.7452534-8.8885586 19.116-8.8885586s14.3658659 3.25259093 19.116 8.8885586c.7521934.8919712.918979 2.1391573.4275912 3.1974321s-1.5517979 1.7356381-2.7185912 1.7365679z" fill="#ffe7e8"/><path id="Shape" d="m49.116 9.889c-4.7464598-5.64082506-11.7439069-8.89465993-19.116-8.889-.5 0-1 .018-1.5.048 6.8363568.40499962 13.2058583 3.60168234 17.616 8.841.5742309.6746761.8193298 1.5694518.6690768 2.44258-.150253.8731283-.6803519 1.6345034-1.4470768 2.07842 1.25879.7308542 2.8610216.4486762 3.7943884-.6682511s.9264466-2.7438024-.0163884-3.8527489z" fill="#ffc9cc"/><path id="Shape" d="m37 56c0 1.6568542-1.3431458 3-3 3h-6v-6h6c1.6568542 0 3 1.3431458 3 3z" fill="#ffe7e8"/><path id="Shape" d="m34 53h-3c1.6568542 0 3 1.3431458 3 3s-1.3431458 3-3 3h3c1.6568542 0 3-1.3431458 3-3s-1.3431458-3-3-3z" fill="#ffc9cc"/><path id="Shape" d="m28 53v6h-2c-1.6568542 0-3-1.3431458-3-3s1.3431458-3 3-3z" fill="#ffe7e8"/><path id="Shape" d="m8 47c.0032948 1.1032019.89679813 1.9967052 2 2h3c-1.1032019-.0032948-1.9967052-.8967981-2-2-3.87 0-7-3.58-7-8s3.13-8 7-8c.0032948-1.1032019.8967981-1.9967052 2-2h-3c-1.10320187.0032948-1.9967052.8967981-2 2-3.87 0-7 3.58-7 8s3.13 8 7 8z" fill="#fff"/><path id="Shape" d="m14.673 14.411c-.7756843-.4358868-1.3144244-1.1972832-1.4673606-2.0738069-.1529361-.8765238.0961234-1.7753757.6783606-2.4481931 4.4034545-5.24749446 10.7770118-8.44548907 17.616-8.839-7.8851005-.49107301-15.5353748 2.78894125-20.616 8.839-.94252145 1.1116824-.94724996 2.740656-.0111982 3.8577914.9360517 1.1171353 2.5407063 1.3976011 3.8001982.6642086z" fill="#fff"/><path id="Shape" d="m16.4 3.842 1.047 1.7c-2.1831193 1.34758153-4.1404235 3.03052573-5.8 4.987l-1.528-1.285c1.7967572-2.11957045 3.9164456-3.94261727 6.281-5.402z" fill="#fff"/><g fill="#ff414c"><path id="Shape" d="m14 39c.5522847 0 1-.4477153 1-1v-2c0-.5522847-.4477153-1-1-1s-1 .4477153-1 1v2c0 .5522847.4477153 1 1 1z"/><path id="Shape" d="m53 30.078v-4.078c-.0022533-4.0717601-1.0880781-8.0695696-3.146-11.583 1.2832796-1.4817982 1.2947419-3.677887.027-5.173-4.9368211-5.8659338-12.2141004-9.24962524-19.881-9.244-2.3885688.01084036-4.7650811.33938889-7.067.977-2.2970656.65556481-4.4947206 1.61933055-6.533 2.865-.2307832.13890438-.395081.36576738-.4550705.6283632-.0599896.26259582-.0105019.53829773.1370705.7636368.2973808.45369441.9000442.59144606 1.365.312 1.8811247-1.14989078 3.9091886-2.03996495 6.029-2.646 2.1252979-.58718592 4.3191021-.88982599 6.524-.9 7.0772302-.00513731 13.7948007 3.11828409 18.352 8.533.3422531.4054632.5093589.9303111.4645344 1.4590155-.0448246.5287044-.2979052 1.0179282-.7035344 1.3599845-.853663.6816216-2.0913238.5766532-2.818-.239-3.8001067-4.51033563-9.3972091-7.1134576-15.295-7.1134576s-11.4948933 2.60312197-15.295 7.1134576c-.7124473.8441672-1.9743327.9509473-2.8185.2385-.8441672-.7124474-.9509473-1.9743328-.2385-2.8185.2356763-.2724978.3065544-.65070344.185541-.99004711-.1210133-.33934367-.4152086-.58736049-.7701291-.64924558-.3549206-.06188509-.7156932.07192942-.9444119.35029269-1.26774185 1.495113-1.25627957 3.6912018.027 5.173-2.05792189 3.5134304-3.1437467 7.5112399-3.146 11.583v4.078c-3.94.557-7 4.341-7 8.922 0 4.647 3.147 8.482 7.169 8.951.29323188.8688269.96771469 1.5558342 1.831 1.865v.184c.00495836 3.8639376 3.1360624 6.9950416 7 7h6.142c.4545933 1.7606851 2.0395884 2.9931852 3.858 3h8c2.209139 0 4-1.790861 4-4s-1.790861-4-4-4h-8c-1.8184116.0068148-3.4034067 1.2393149-3.858 3h-6.142c-2.7600532-.0033061-4.9966939-2.2399468-5-5h5c1.6568542 0 3-1.3431458 3-3v-16c0-1.6568542-1.3431458-3-3-3h-6c-.34143967.0033144-.67974302.0655622-1 .184v-2.184c.00155969-3.6646117.96425597-7.2647234 2.792-10.441 1.5770611.5863432 3.3524531.1231106 4.442-1.159 3.4200958-4.059657 8.4577168-6.40270532 13.766-6.40270532s10.3459042 2.34304832 13.766 6.40270532c1.0862105 1.2911773 2.8673153 1.7592779 4.448 1.169 1.8240893 3.1738615 2.7846576 6.7703038 2.786 10.431v2.184c-.320257-.1184378-.6585603-.1806856-1-.184h-6c-1.6568542 0-3 1.3431458-3 3v16c0 1.6568542 1.3431458 3 3 3h6c1.2858366-.0039679 2.425448-.8287873 2.831-2.049 4.022-.469 7.169-4.304 7.169-8.951 0-4.581-3.06-8.365-7-8.922zm-17 25.922c0 1.1045695-.8954305 2-2 2h-5v-4h5c1.1045695 0 2 .8954305 2 2zm-10-2h1v4h-1c-1.1045695 0-2-.8954305-2-2s.8954305-2 2-2zm-24-15c0-3.461 2.167-6.337 5-6.9v13.8c-2.833-.564-5-3.439-5-6.9zm8-9h3v2c0 .5522847.4477153 1 1 1s1-.4477153 1-1v-2h1c.5522847 0 1 .4477153 1 1v16c0 .5522847-.4477153 1-1 1h-1v-6c0-.5522847-.4477153-1-1-1s-1 .4477153-1 1v6h-3c-.55228475 0-1-.4477153-1-1v-16c0-.5522847.44771525-1 1-1zm40 18h-3v-6c0-.5522847-.4477153-1-1-1s-1 .4477153-1 1v6h-1c-.5522847 0-1-.4477153-1-1v-16c0-.5522847.4477153-1 1-1h1v2c0 .5522847.4477153 1 1 1s1-.4477153 1-1v-2h3c.5522847 0 1 .4477153 1 1v16c0 .5522847-.4477153 1-1 1zm3-2.1v-13.8c2.833.558 5 3.434 5 6.9s-2.167 6.336-5 6.9z"/><path id="Shape" d="m46 35c-.5522847 0-1 .4477153-1 1v2c0 .5522847.4477153 1 1 1s1-.4477153 1-1v-2c0-.5522847-.4477153-1-1-1z"/><path id="Shape" d="m13.713 8.048c-.5522847.00276141-1.0022386-.44271526-1.005-.995s.4427153-1.00223856.995-1.005h.01c.5522847 0 1 .44771525 1 1s-.4477153 1-1 1z"/></g></g></g></svg>