<svg height="512" viewBox="0 0 60 60" width="512" xmlns="http://www.w3.org/2000/svg"><g id="Page-1" fill="none" fill-rule="evenodd"><g id="092---Mail-Note" fill-rule="nonzero"><path id="Shape" d="m45.17 12.54-2.83 2.83-.7-.71-4.95-4.95 2.82-2.83z" fill="#ffe0e2"/><path id="Shape" d="m50.12 7.59-4.95 4.95-5.66-5.66 4.95-4.95c1.1751514-1.16986609 3.0748486-1.16986609 4.25 0l1.41 1.42c1.1698135 1.17127019 1.1698135 3.06872981 0 4.24z" fill="#ffe7e8"/><path id="Shape" d="m57.14 18.67-21.56 19.33-2.91 2.61c-1.5194291 1.3620811-3.8205709 1.3620811-5.34 0l-1.54-1.38-1.37-1.23-21.56-19.33c1.10872567-1.0763138 2.59478451-1.6757627 4.14-1.67h46c1.5452155-.0057627 3.0312743.5936862 4.14 1.67z" fill="#ffe7e8"/><path id="Shape" d="m53 17h-3c1.5452155-.0057627 3.0312743.5936862 4.14 1.67l-21.56 19.33-2.91 2.61c-.3454835.3060331-.7413247.5499661-1.17.721 1.4137274.5748395 3.0313571.2951486 4.17-.721l2.91-2.61 21.56-19.33c-1.1087257-1.0763138-2.5947845-1.6757627-4.14-1.67z" fill="#ffc9cc"/><path id="Shape" d="m59 23v30c.0026064 1.637861-.6702817 3.2043154-1.86 4.33l-21.56-19.33 21.56-19.33c1.1897183 1.1256846 1.8626064 2.692139 1.86 4.33z" fill="#ffe0e2"/><path id="Shape" d="m57.14 18.67-1.8 1.614c.4331918.8398403.6594726 1.7710203.66 2.716v30c-.0005274.9449797-.2268082 1.8761597-.66 2.716l1.8 1.614c1.1897183-1.1256846 1.8626064-2.692139 1.86-4.33v-30c.0026064-1.637861-.6702817-3.2043154-1.86-4.33z" fill="#ff9ea1"/><path id="Shape" d="m57.14 57.33c-1.1087257 1.0763138-2.5947845 1.6757627-4.14 1.67h-46c-1.54521549.0057627-3.03127433-.5936862-4.14-1.67l21.56-19.33 1.37 1.23 1.54 1.38c1.5194291 1.3620811 3.8205709 1.3620811 5.34 0l2.91-2.61z" fill="#ffe7e8"/><path id="Shape" d="m35.58 38-1.5 1.345 20.06 17.985c-1.1087257 1.0763138-2.5947845 1.6757627-4.14 1.67h3c1.5452155.0057627 3.0312743-.5936862 4.14-1.67z" fill="#ffc9cc"/><path id="Shape" d="m24.42 38-21.56 19.33c-1.18971831-1.1256846-1.86260635-2.692139-1.86-4.33v-30c-.00260635-1.637861.67028169-3.2043154 1.86-4.33z" fill="#ffe0e2"/><path id="Shape" d="m18.83 36.5-3.62 1.68c-.3844854.1904922-.8476428.1144645-1.1510537-.1889463-.3034108-.3034109-.3794385-.7665683-.1889463-1.1510537l1.68-3.62c.7683989.2463963 1.4674904.6713343 2.04 1.24.5754244.5671908 1.001437 1.2680503 1.24 2.04z" fill="#ffe0e2"/><path id="Shape" d="m23.25 34.46-4.42 2.04c-.238563-.7719497-.6645756-1.4728092-1.24-2.04-.5725096-.5686657-1.2716011-.9936037-2.04-1.24l2.04-4.42c.5628796-.5597196 1.4027666-.735091 2.1425926-.4473809.7398259.28771 1.2405641.9844357 1.2774074 1.7773809.0218617.4949424.4153261.8927306.91.92.5009331.0172819.9764878.2246667 1.33.58.3755541.3751365.5865733.8841815.5865733 1.415s-.2110192 1.0398635-.5865733 1.415z" fill="#ffe7e8"/><path id="Shape" d="m39.52 12.54-18.23 18.23c-.171738-.1696803-.271939-.398711-.28-.64-.0368433-.7929452-.5375815-1.4896709-1.2774074-1.7773809-.739826-.2877101-1.579713-.1123387-2.1425926.4473809l19.1-19.09z" fill="#ffe7e8"/><path id="Shape" d="m23.25 34.46c.3755541-.3751365.5865733-.8841815.5865733-1.415s-.2110192-1.0398635-.5865733-1.415c-.3535122-.3553333-.8290669-.5627181-1.33-.58-.2372909-.0126688-.461587-.1123559-.63-.28l18.23-18.23 2.12 2.12.7.71z" fill="#ffc9cc"/><path id="Shape" d="m7 59h3c-3.31142545-.0055053-5.99449471-2.6885745-6-6v-30c.00550529-3.3114255 2.68857455-5.9944947 6-6h-3c-3.31142545.0055053-5.99449471 2.6885745-6 6v30c.00550529 3.3114255 2.68857455 5.9944947 6 6z" fill="#fff"/><path id="Rectangle-path" d="m0 45h2v8h-2z" fill="#fff"/><g fill="#ff414c"><path id="Shape" d="m47.293 6.176c.2860606-.28597424.3716717-.71611576.2169084-1.08982722-.1547633-.37371147-.5194187-.61738633-.9239084-.61738633s-.7691451.24367486-.9239084.61738633c-.1547633.37371146-.0691522.80385298.2169084 1.08982722.3904999.39038194 1.0235001.39038194 1.414 0z"/><path id="Shape" d="m35.979 14.661-12.728 12.729c-.3573086.3957244-.3413125 1.0021814.0363603 1.3785196.3776728.3763383.9841826.3901875 1.3786397.0314804l12.728-12.725c.3904653-.3907415.3902414-1.0240347-.0005-1.4145-.3907415-.3904653-1.0240347-.3902414-1.4145.0005z"/><path id="Shape" d="m16.687 28.384-3.71 8.016c-.3050986.6202123-.2704806 1.3536174.0916815 1.9423338.3621622.5887165 1.001164.9503213 1.6923185.9576662.3032181-.0004803.6021418-.0717015.873-.208l8.038-3.723c.1065204-.0495546.203629-.1172261.287-.2l21.919-21.922 4.95-4.95c1.5615278-1.56199941 1.5615278-4.09400059 0-5.656l-1.414-1.414c-1.5836906-1.50920671-4.0733094-1.50920671-5.657 0l-4.949 4.949-21.921 21.924c-.0831283.0819324-.1508698.1781253-.2.284zm3.029 1.128c.1776024.1761708.2819273.4130454.292.663.0496588 1.012212.8588147 1.8218004 1.871 1.872.3694214.0157276.7000148.2340204.8595703.5675794.1595555.3335589.1220297.7279389-.0975703 1.0254206l-3.307 1.523c-.546089-1.0480942-1.4014602-1.9027671-2.45-2.448l1.529-3.3c.3983341-.2951137.952753-.2538408 1.303.097zm-4.937 7.75 1.263-2.728c.619966.3392552 1.1307954.8476571 1.473 1.466zm27.564-23.308c-.3923789-.3789722-1.0160848-.3735524-1.4018186.0121814s-.3911536 1.0094397-.0121814 1.4018186l-16.394 16.394c-.4574172-1.0004718-1.4360574-1.6610057-2.535-1.711-.0531137-1.0971723-.7128325-2.0734482-1.711-2.532l16.397-16.394 1.414 1.415c.3923789.3789722 1.0160848.3735524 1.4018186-.0121814s.3911536-1.0094397.0121814-1.4018186l-1.414-1.415 1.415-1.411 2.121 2.121 2.12 2.121zm2.828-11.313c.7915033-.75594024 2.0374967-.75594024 2.829 0l1.414 1.414c.7807639.7809997.7807639 2.0470003 0 2.828l-4.243 4.243-1.414-1.414.708-.712c.3573086-.39572437.3413125-1.00218138-.0363603-1.37851962-.3776728-.37633825-.9841826-.39018752-1.3786397-.03148038l-.707.707-1.414-1.414z"/><circle id="Oval" cx="1" cy="49" r="1"/><path id="Shape" d="m23 16h-16c-3.86416566.0044086-6.99559136 3.1358343-7 7v22c0 .5522847.44771525 1 1 1s1-.4477153 1-1v-22c.00207066-1.0447971.33421375-2.062226.949-2.907l9.651 8.651c.2638198.2514452.643544.3394518.9910772.2296966.3475332-.1097553.6078357-.3998902.6793874-.7572498.0715517-.3573597-.0569792-.725348-.3354646-.9604468l-9.5-8.522c.77166601-.474907 1.65892161-.7288039 2.565-.734h16c.5522847 0 1-.4477153 1-1s-.4477153-1-1-1z"/><path id="Shape" d="m53 16h-6c-.5522847 0-1 .4477153-1 1s.4477153 1 1 1h6c.9081189.0040973 1.7975953.2580358 2.571.734l-23.571 21.131c-1.1388026 1.018576-2.8611974 1.018576-4 0l-2.911-2.61c-.3798573-.3405203-.9551427-.3405203-1.335 0l-20.805 18.652c-.61478625-.844774-.94692934-1.8622029-.949-2.907 0-.5522847-.44771525-1-1-1s-1 .4477153-1 1c.00440864 3.8641657 3.13583434 6.9955914 7 7h46c3.8641657-.0044086 6.9955914-3.1358343 7-7v-30c-.0044086-3.8641657-3.1358343-6.9955914-7-7zm5 37c-.0020707 1.0447971-.3342138 2.062226-.949 2.907l-19.973-17.907 19.973-17.907c.6147862.844774.9469293 1.8622029.949 2.907zm-51 5c-.90811891-.0040973-1.79759533-.2580358-2.571-.734l19.991-17.923 2.244 2.012c1.8989792 1.7014064 4.7740208 1.7014064 6.673 0l2.244-2.011 19.99 17.923c-.7735071.4756131-1.6629766.7292036-2.571.733z"/></g></g></g></svg>