<svg height="512" viewBox="0 0 60 60" width="512" xmlns="http://www.w3.org/2000/svg"><g id="Page-1" fill="none" fill-rule="evenodd"><g id="121---Transit" fill-rule="nonzero"><path id="Shape" d="m39 17.611v24.5h-34c-2.209139 0-4-1.790861-4-4v-20.5c0-3.3137085 2.6862915-6 6-6h26c3.3137085 0 6 2.6862915 6 6z" fill="#ffe7e8"/><path id="Shape" d="m33 12.111h-3c3.3137085 0 6 2.6862915 6 6v24h3v-24c0-3.3137085-2.6862915-6-6-6z" fill="#ffc9cc"/><path id="Shape" d="m59 42.111v7c0 1.6568542-1.3431458 3-3 3h-3.09c-.4853307-2.8857455-2.9837271-4.9990438-5.91-4.9990438s-5.4246693 2.1132983-5.91 4.9990438h-19.18c-.4853307-2.8857455-2.9837271-4.9990438-5.91-4.9990438s-5.4246693 2.1132983-5.91 4.9990438h-2.09c-1.65685425 0-3-1.3431458-3-3v-7z" fill="#ffe7e8"/><path id="Shape" d="m56 42.111v7c0 1.6568542-1.3431458 3-3 3h3c1.6568542 0 3-1.3431458 3-3v-7z" fill="#ffc9cc"/><path id="Shape" d="m59 36.111v6h-20v-24h9.02c.6189933.0014878 1.2024148.289506 1.58.78l2.45 3.18-.05.04h-7c-1.1032019.0032948-1.9967052.8967981-2 2v10c.0032948 1.1032019.8967981 1.9967052 2 2z" fill="#ffe7e8"/><path id="Shape" d="m59 31.791v4.32h-14c-1.1032019-.0032948-1.9967052-.8967981-2-2v-10c.0032948-1.1032019.8967981-1.9967052 2-2h7l.05-.04 6.54 8.5c.2635216.3524071.4072107.7799697.41 1.22z" fill="#ffe0e2"/><path id="Shape" d="m22 53.111c0 3.3137085-2.6862915 6-6 6s-6-2.6862915-6-6c-.00072051-.3353876.0294064-.6701307.09-1 .4853307-2.8857455 2.9837271-4.9990438 5.91-4.9990438s5.4246693 2.1132983 5.91 4.9990438c.0605936.3298693.0907205.6646124.09 1z" fill="#ffe0e2"/><circle id="Oval" cx="16" cy="53.111" fill="#ffc9cc" r="2"/><path id="Shape" d="m53 53.111c-.0000001 3.3137084-2.6862916 5.9999998-6 5.9999998s-5.9999999-2.6862914-6-5.9999998c-.0007205-.3353876.0294064-.6701307.09-1 .4853307-2.8857455 2.9837271-4.9990438 5.91-4.9990438s5.4246693 2.1132983 5.91 4.9990438c.0605936.3298693.0907205.6646124.09 1z" fill="#ffe0e2"/><circle id="Oval" cx="47" cy="53.111" fill="#ffc9cc" r="2"/><path id="Shape" d="m16.414 7.586-6-6c-.7809997-.78076388-2.0470003-.78076388-2.828 0l-6 6c-.75794442.78475777-.74710475 2.03216955.02436285 2.8036372.7714676.7714675 2.01887938.7823072 2.80363715.0243628l2.586-2.586v16.172c0 1.1045695.8954305 2 2 2s2-.8954305 2-2v-16.172l2.586 2.586c.7847578.7579444 2.0321696.7471047 2.8036372-.0243628.7714675-.77146765.7823072-2.01887943.0243628-2.8036372z" fill="#ffe0e2"/><path id="Shape" d="m30.414 19.414-6 6c-.7809997.7807639-2.0470003.7807639-2.828 0l-6-6c-.5199132-.5021489-.7284252-1.2457558-.5453943-1.9450146.1830309-.6992589.7291208-1.2453488 1.4283797-1.4283797.6992588-.1830309 1.4428657.0254811 1.9450146.5453943l2.586 2.586v-16.172c0-1.1045695.8954305-2 2-2s2 .8954305 2 2v16.172l2.586-2.586c.7847578-.7579444 2.0321696-.7471047 2.8036372.0243628.7714675.7714676.7823072 2.0188794.0243628 2.8036372z" fill="#ffe0e2"/><path id="Shape" d="m4.414 10.414.1-.095c-.70225451-.78759981-.66848526-1.98618906.077-2.733l5.909-5.914-.086-.086c-.7809997-.78076388-2.0470003-.78076388-2.828 0l-6 6c-.75794442.78475777-.74710475 2.03216955.02436285 2.8036372.7714676.7714675 2.01887938.7823072 2.80363715.0243628z" fill="#fff"/><path id="Shape" d="m10.09 51.97c-.0122557.045696-.0189706.0927002-.02.14h-2.07c-1.65685425 0-3-1.3431458-3-3v-7c-2.209139 0-4-1.790861-4-4v-20.5c0-3.3137085 2.6862915-6 6-6v.81c-1.85676992 1.0684285-3.00090011 3.0477738-3 5.19v20.5c0 2.209139 1.790861 4 4 4v7c-.00058647 1.3067794.84479002 2.4636104 2.09 2.86z" fill="#fff"/><path id="Rectangle-path" d="m0 30h2v8h-2z" fill="#fff"/><g fill="#ff414c"><path id="Shape" d="m0 30c0 .5522847.44771525 1 1 1s1-.4477153 1-1v-12c-.00350597-1.1365436.38499535-2.2395341 1.1-3.123.33581974-.4315807.26269013-1.052873-.16416203-1.3946829-.42685217-.3418098-1.04910454-.2773576-1.39683797.1446829-.9938189 1.241099-1.53647513 2.7830326-1.539 4.373z"/><circle id="Oval" cx="1" cy="34" r="1"/><path id="Shape" d="m50.393 18.17c-.5702595-.735315-1.4474762-1.1669145-2.378-1.17h-8.095c-.499063-3.4396095-3.4443801-5.9933527-6.92-6h-4c-.5522847 0-1 .4477153-1 1s.4477153 1 1 1h4c2.7600532.0033061 4.9966939 2.2399468 5 5v23h-33c-1.65685425 0-3-1.3431458-3-3 0-.5522847-.44771525-1-1-1s-1 .4477153-1 1c.00299829 2.3751008 1.6735832 4.4215673 4 4.9v6.1c0 2.209139 1.790861 4 4 4h1c0 3.8659932 3.1340068 7 7 7s7-3.1340068 7-7h17c0 3.8659932 3.1340068 7 7 7s7-3.1340068 7-7h2c2.209139 0 4-1.790861 4-4v-17.319c-.0011112-.6613868-.2196688-1.3040587-.622-1.829zm7.607 13.511v3.319h-13c-.5522847 0-1-.4477153-1-1v-10c0-.5522847.4477153-1 1-1h6.585l6.207 8.07c.1344931.1753289.2075823.3900284.208.611zm-42 26.319c-2.7614237 0-5-2.2385763-5-5s2.2385763-5 5-5 5 2.2385763 5 5c-.0033061 2.7600532-2.2399468 4.9966939-5 5zm31 0c-2.7614237 0-5-2.2385763-5-5s2.2385763-5 5-5 5 2.2385763 5 5c-.0033061 2.7600532-2.2399468 4.9966939-5 5zm9-7h-2.3c-.8935021-2.952905-3.6148754-4.9726865-6.7-4.9726865s-5.8064979 2.0197815-6.7 4.9726865h-17.595c-.8907752-2.9570695-3.6141768-4.9809671-6.7025-4.9809671s-5.8117248 2.0238976-6.7025 4.9809671h-1.3c-1.1045695 0-2-.8954305-2-2v-6h43c.5522847 0 1-.4477153 1-1s-.4477153-1-1-1h-9v-22h8.015c.3105511-.0001858.6035639.1439188.793.39l1.239 1.61h-5.047c-1.6568542 0-3 1.3431458-3 3v10c0 1.6568542 1.3431458 3 3 3h13v12c0 1.1045695-.8954305 2-2 2z"/><path id="Shape" d="m16 50c-1.6568542 0-3 1.3431458-3 3s1.3431458 3 3 3 3-1.3431458 3-3-1.3431458-3-3-3zm0 4c-.5522847 0-1-.4477153-1-1s.4477153-1 1-1 1 .4477153 1 1-.4477153 1-1 1z"/><path id="Shape" d="m47 50c-1.2133867 0-2.3072956.7309265-2.7716386 1.8519497s-.2076757 2.4113767.6503183 3.2693706c.8579939.857994 2.1483474 1.1146613 3.2693706.6503183s1.8519497-1.5582519 1.8519497-2.7716386c0-1.6568542-1.3431458-3-3-3zm0 4c-.5522847 0-1-.4477153-1-1s.4477153-1 1-1 1 .4477153 1 1-.4477153 1-1 1z"/><path id="Shape" d="m55 41h-2c-.5522847 0-1 .4477153-1 1s.4477153 1 1 1h2c.5522847 0 1-.4477153 1-1s-.4477153-1-1-1z"/><path id="Shape" d="m47 25c-.5522847 0-1 .4477153-1 1v1c0 .5522847.4477153 1 1 1s1-.4477153 1-1v-1c0-.5522847-.4477153-1-1-1z"/><path id="Shape" d="m47 30c-.5522847 0-1 .4477153-1 1v1c0 .5522847.4477153 1 1 1s1-.4477153 1-1v-1c0-.5522847-.4477153-1-1-1z"/><path id="Shape" d="m27 47h-2c-.5522847 0-1 .4477153-1 1s.4477153 1 1 1h2c.5522847 0 1-.4477153 1-1s-.4477153-1-1-1z"/><path id="Shape" d="m38 47h-7c-.5522847 0-1 .4477153-1 1s.4477153 1 1 1h7c.5522847 0 1-.4477153 1-1s-.4477153-1-1-1z"/><path id="Shape" d="m.878 11.121c1.18739336 1.1330821 3.05560664 1.1330821 4.243 0l.879-.879v13.758c0 1.6568542 1.34314575 3 3 3 1.6568542 0 3-1.3431458 3-3v-13.758l.878.879c1.1873934 1.1330821 3.0556066 1.1330821 4.243 0 1.1711458-1.17149955 1.1711458-3.07050045 0-4.242l-6-6c-1.18739336-1.13308211-3.05560664-1.13308211-4.243 0l-6 6c-1.17114581 1.17149955-1.17114581 3.07050045 0 4.242zm1.415-2.828 6-6c.39506878-.37918874 1.01893122-.37918874 1.414 0l6 6c.3903819.39049985.3903819 1.02350015 0 1.414-.3950688.3791887-1.0189312.3791887-1.414 0l-2.586-2.586c-.2859943-.28590792-.7160366-.37142191-1.0896546-.21667798-.3736179.15474393-.6172591.51928208-.6173454.92367798v16.172c0 .5522847-.44771525 1-1 1s-1-.4477153-1-1v-16.172c-.00008635-.4043959-.2437275-.76893405-.61734544-.92367798s-.80366031-.06922994-1.08965456.21667798l-2.586 2.586c-.39506878.3791887-1.01893122.3791887-1.414 0-.39038194-.39049985-.39038194-1.02350015 0-1.414z"/><path id="Shape" d="m23 0c-1.6568542 0-3 1.34314575-3 3v13.758l-.878-.879c-1.1873934-1.1330821-3.0556066-1.1330821-4.243 0-1.1711458 1.1714996-1.1711458 3.0705004 0 4.242l6 6c.5626237.562719 1.3257625.8788593 2.1215.8788593s1.5588763-.3161403 2.1215-.8788593l6-6c1.1711458-1.1714996 1.1711458-3.0705004 0-4.242-1.1873934-1.1330821-3.0556066-1.1330821-4.243 0l-.879.879v-13.758c0-1.65685425-1.3431458-3-3-3zm5.293 17.293c.3950688-.3791887 1.0189312-.3791887 1.414 0 .3903819.3904999.3903819 1.0235001 0 1.414l-6 6c-.3950688.3791887-1.0189312.3791887-1.414 0l-6-6c-.2599566-.2510745-.3642126-.6228779-.2726972-.9725073.0915155-.3496295.3645604-.6226744.7141899-.7141899.3496294-.0915154.7214328.0127406.9725073.2726972l2.586 2.586c.2859943.2859079.7160366.3714219 1.0896546.216678.3736179-.1547439.6172591-.5192821.6173454-.923678v-16.172c0-.55228475.4477153-1 1-1s1 .44771525 1 1v16.172c.0000863.4043959.2437275.7689341.6173454.923678.373618.1547439.8036603.0692299 1.0896546-.216678z"/></g></g></g></svg>