<svg height="512" viewBox="0 0 60 60" width="512" xmlns="http://www.w3.org/2000/svg"><g id="Page-1" fill="none" fill-rule="evenodd"><g id="135---Send" fill-rule="nonzero" transform="translate(-1)"><path id="Shape" d="m59.71 1.31-13.71 14.69-4.66 5-23.27 24.93-15.43-6.3c-.35400402-.1430338-.59943859-.470646-.63722209-.8505801s.13832167-.7494674.45722209-.9594199l55.95-36.65c.4117773-.26721043.9545576-.20875717 1.3.14z" fill="#ffe7e8"/><path id="Shape" d="m59.99 2.19-8.68 55.94c-.0495951.3111221-.2388522.5824362-.5137022.7364302s-.6050622.17373-.8962978.0535698l-16.91-6.91.01-.01 26.79-50.6c.1688652.22635653.2408154.51055978.2.79z" fill="#ffe7e8"/><path id="Shape" d="m59.79 1.4-3.79 7.153-7.69 49.577c-.009412.0426967-.0214346.0847757-.036.126l1.626.664c.2912356.1201602.6214478.1004242.8962978-.0535698s.4641071-.4253081.5137022-.7364302l8.68-55.94c.0408154-.27944022-.0311348-.56364347-.2-.79z" fill="#ffc9cc"/><path id="Shape" d="m59.79 1.4-26.79 50.6-.01.01h-.01l-6.98 6.57c-.4813731.3731333-1.1065393.5065863-1.6983146.3625357s-1.0856628-.5499047-1.3416854-1.1025357l-4.96-11.84.07-.07 23.27-24.93 4.66-5 13.71-14.69c.0238109.03242169.0505935.06255215.08.09z" fill="#ffe0e2"/><path id="Shape" d="m22.96 57.84c.2560226.552631.7499101.9584851 1.3416854 1.1025357s1.2169415.0105976 1.6983146-.3625357l.279-.263c-.1285125-.1429926-.2359316-.3036161-.319-.477-5.321-12.7-4.99-11.81-4.89-11.91l-15.43-6.3c-.35400402-.1430338-.59943859-.470646-.63722209-.8505801s.13832167-.7494674.45722209-.9594199l54.525-35.72c.0185903-.24968172-.0523085-.49782736-.2-.7-.0294065-.02744785-.0561891-.05757831-.08-.09-.3454424-.34875717-.8882227-.40721043-1.3-.14l-55.945 36.65c-.31890042.2099525-.49500559.5794858-.45722209.9594199s.28321807.7075463.63722209.8505801l15.43 6.3c-.1.1-.431-.792 4.89 11.91z" fill="#fff"/><path id="Rectangle-path" d="m1.806 34.628h8v2h-8z" fill="#fff" transform="matrix(.837 -.548 .548 .837 -18.573 9.006)"/><g fill="#ff414c"><path id="Shape" d="m6.354 36.465c.33851482-.2214387.51028287-.625007.43519342-1.0224853-.07508946-.3974782-.38224528-.7105708-.77821335-.7932549-.39596806-.0826841-.80275042.0813275-1.03062823.4155416-.22787782.3342141-.23196362.7727971-.01035184 1.1111986.30246201.4618599.92198543.5912257 1.384.289z"/><path id="Shape" d="m2.262 40.556 14.926 6.094 4.864 11.609c.3801236.8311956 1.1206604 1.4419818 2.009 1.657.2290887.0562567.4641051.0847944.7.085.7002659-.0079105 1.3774086-.2517101 1.922-.692l6.517-6.131 16.329 6.67c.2448869.0995992.5066348.1512019.771.152.9968529-.0043287 1.8436677-.7304724 2-1.715l8.681-55.963c.0777267-.56313892-.0828151-1.133189-.443-1.573-.0385227-.05729605-.083114-.11026918-.133-.158-.6807798-.66894047-1.7338809-.77769588-2.537-.262l-.005.005-49.263 32.266c-.46198615.3037566-.59025654.9245138-.28649994 1.3865.3037566.4619861.92451375.5902566 1.38649994.2865l49.1-32.162c.0721894-.01763288.1420165-.04381804.208-.078l-8.73 55.961-15.885-6.487 17.516-33.084c.175871-.3164711.1669459-.7032872-.023334-1.0113101-.19028-.3080229-.532192-.4891376-.8939108-.4735147s-.6867417.2255429-.8497552.5488248l-17.942 33.88-6.815 6.422c-.2409212.1883917-.5548054.2561789-.852.184-.2844206-.0675785-.5240673-.2581232-.654-.52l-4.709-11.24 22.893-24.53c.3772104-.4039963.3554962-1.0372895-.0485-1.4145-.4039963-.3772104-1.0372895-.3554963-1.4145.0485l-22.8 24.424-14.785-6.089c.45950088-.306518.58351798-.9274991.27699996-1.387-.30651803-.4595009-.92749905-.583518-1.38699996-.277-.62688026.4152712-.97236357 1.1434461-.89750021 1.8916603.07486337.7482143.55777009 1.3935037 1.25450021 1.6763397z"/><path id="Shape" d="m39.427 48.953c-.5114157-.2087636-1.0952364.0365843-1.304.548s.0365843 1.0952364.548 1.304l8.764 3.579c.5103012.2062147 1.0913138-.0387045 1.3-.548.2063282-.5100249-.0380958-1.0909229-.547-1.3z"/><path id="Shape" d="m16.622 41.784c.5103012.2062147 1.0913138-.0387045 1.3-.548.2062147-.5103012-.0387045-1.0913138-.548-1.3l-7-2.859c-.51141568-.2087636-1.09523636.0365843-1.304.548s.03658432 1.0952364.548 1.304z"/><path id="Shape" d="m46.732 16.683 3.391-3.634c.2438338-.2613398.3297224-.6329115.2253124-.9747476s-.3832563-.6020037-.7315-.6825c-.3482438-.0804964-.7129786.0309078-.9568124.2922476l-3.39 3.633c-.3772105.4037202-.3557201 1.0367895.048 1.414.4037202.3772105 1.0367895.3557201 1.414-.048z"/></g></g></g></svg>