<svg xmlns="http://www.w3.org/2000/svg" width="143" height="41" viewBox="0 0 143 41">
  <metadata><?xpacket begin="﻿" id="W5M0MpCehiHzreSzNTczkc9d"?>
<x:xmpmeta xmlns:x="adobe:ns:meta/" x:xmptk="Adobe XMP Core 5.6-c138 79.159824, 2016/09/14-01:09:01        ">
   <rdf:RDF xmlns:rdf="http://www.w3.org/1999/02/22-rdf-syntax-ns#">
      <rdf:Description rdf:about=""/>
   </rdf:RDF>
</x:xmpmeta>

<?xpacket end="w"?></metadata>
<defs>
    <style>
      .cls-1 {
        font-size: 24px;
        fill: #022d62;
        font-family: 'Archivo', sans-serif;
        font-weight:bold;
      }

      .cls-2 {
        fill: #ef3139;
      }

      .cls-3, .cls-4 {
        fill-rule: evenodd;
      }

      .cls-3 {
        fill: #ef3139;
      }

      .cls-4 {
        fill: #fff;
      }

      .cls-5 {
        font-size: 24px;
        fill: #ffffff;
        font-family: 'Archivo', sans-serif;
        font-weight:bold;
      }
    </style>
  </defs>
  <text id="hi-Soft" class="cls-5" transform="translate(50.922 30.025) scale(1.114)">hi-Soft</text>
  <g id="icon">
    <path id="Shape_3_copy" data-name="Shape 3 copy" class="cls-2" d="M20.609,0A20.5,20.5,0,1,1,.219,20.5,20.446,20.446,0,0,1,20.609,0ZM5.553,26.2L13.6,34.585a0.826,0.826,0,0,1-.472,1.326c-0.536.166-11.278,3.445-12.2,3.724a0.683,0.683,0,0,1-.871-0.909c0.221-.659,3.9-11.356,4.179-12.12A0.818,0.818,0,0,1,5.553,26.2Z"/>
  </g>
  <path class="cls-3" d="M20.609,0A20.5,20.5,0,1,1,.219,20.5,20.446,20.446,0,0,1,20.609,0ZM5.553,26.2L13.6,34.585a0.826,0.826,0,0,1-.472,1.326c-0.536.166-11.278,3.445-12.2,3.724a0.683,0.683,0,0,1-.871-0.909c0.221-.659,3.9-11.356,4.179-12.12A0.818,0.818,0,0,1,5.553,26.2Z"/>
  <path id="n_copy" data-name="n copy" class="cls-4" d="M22.988,18.587H18.7v-4.9q-0.4-.059-0.922-0.1T16.8,13.538a2.22,2.22,0,0,0-2.045.876,5.938,5.938,0,0,0-.547,2.978v8.145H9.912V16.867a11.97,11.97,0,0,1,.317-2.861,5.672,5.672,0,0,1,1.066-2.219,4.836,4.836,0,0,1,2.031-1.445,8.744,8.744,0,0,1,3.211-.511,22.861,22.861,0,0,1,3.629.278,23.7,23.7,0,0,1,2.823.6v7.881Zm-4.154,4.3h4.278v4.99c0.268,0.04.574,0.075,0.919,0.1s0.67,0.045.976,0.045a2.2,2.2,0,0,0,2.038-.892A6.153,6.153,0,0,0,27.59,24.1V15.806h4.278v8.827a12.443,12.443,0,0,1-.316,2.913A5.824,5.824,0,0,1,30.49,29.8a4.815,4.815,0,0,1-2.024,1.471,8.535,8.535,0,0,1-3.2.52,22.407,22.407,0,0,1-3.617-.282,23.365,23.365,0,0,1-2.814-.61V22.883Z"/>
</svg>
